<mxfile compressed="false" host="Electron" modified="2023-01-19T23:33:12.159Z" agent="5.0 (Windows NT 10.0; WOW64) AppleWebKit/537.36 (KHTML, like Gecko) draw.io/20.7.4 Chrome/106.0.5249.199 Electron/21.3.3 Safari/537.36" etag="zCcQMlqjWk7vooSihRR4" version="20.7.4" type="device" pages="2">
  <diagram id="b1FpWhbPB82mh2HIuGyS" name="raspberry_pinout">
    <mxGraphModel dx="16160" dy="9380" grid="1" gridSize="19.685" guides="1" tooltips="1" connect="0" arrows="0" fold="1" page="0" pageScale="1" pageWidth="827" pageHeight="1169" background="#ffffff" math="0" shadow="0">
      <root>
        <mxCell id="0" />
        <mxCell id="1" parent="0" />
        <mxCell id="N9qgZzJZAJzPSqjrUuPE-2" value="contour" parent="0" />
        <mxCell id="Xc8OwGy_YWXIGkOXyG72-70" value="" style="rounded=0;whiteSpace=wrap;html=1;strokeWidth=25;" parent="N9qgZzJZAJzPSqjrUuPE-2" vertex="1">
          <mxGeometry x="-78.74" y="-866.14" width="787.4" height="6535.42" as="geometry" />
        </mxCell>
        <mxCell id="Xc8OwGy_YWXIGkOXyG72-238" value="back_labels" parent="0" />
        <mxCell id="Xc8OwGy_YWXIGkOXyG72-241" value="" style="rounded=0;whiteSpace=wrap;html=1;strokeWidth=10;fillColor=#ffe6cc;strokeColor=#d79b00;fillOpacity=80;" parent="Xc8OwGy_YWXIGkOXyG72-238" vertex="1">
          <mxGeometry x="-1633.8500000000001" y="-649.5999999999999" width="1929.13" height="275.59" as="geometry" />
        </mxCell>
        <mxCell id="N9qgZzJZAJzPSqjrUuPE-10" value="" style="rounded=0;whiteSpace=wrap;html=1;strokeWidth=10;fillColor=#d5e8d4;strokeColor=#82b366;fillOpacity=80;" vertex="1" parent="Xc8OwGy_YWXIGkOXyG72-238">
          <mxGeometry x="-1633.8450000000003" y="-334.645" width="1929.13" height="275.59" as="geometry" />
        </mxCell>
        <mxCell id="N9qgZzJZAJzPSqjrUuPE-11" value="" style="rounded=0;whiteSpace=wrap;html=1;strokeWidth=10;fillColor=#d5e8d4;strokeColor=#82b366;fillOpacity=80;" vertex="1" parent="Xc8OwGy_YWXIGkOXyG72-238">
          <mxGeometry x="-1633.8550000000002" y="-19.684999999999945" width="1929.13" height="275.59" as="geometry" />
        </mxCell>
        <mxCell id="N9qgZzJZAJzPSqjrUuPE-12" value="" style="rounded=0;whiteSpace=wrap;html=1;strokeWidth=10;fillColor=#d5e8d4;strokeColor=#82b366;fillOpacity=80;" vertex="1" parent="Xc8OwGy_YWXIGkOXyG72-238">
          <mxGeometry x="-1633.8500000000004" y="295.27000000000004" width="1929.13" height="275.59" as="geometry" />
        </mxCell>
        <mxCell id="N9qgZzJZAJzPSqjrUuPE-13" value="" style="rounded=0;whiteSpace=wrap;html=1;strokeWidth=10;fillColor=#647687;strokeColor=#314354;fillOpacity=80;fontColor=#ffffff;" vertex="1" parent="Xc8OwGy_YWXIGkOXyG72-238">
          <mxGeometry x="-1633.8450000000003" y="610.2350000000001" width="1929.13" height="275.59" as="geometry" />
        </mxCell>
        <mxCell id="N9qgZzJZAJzPSqjrUuPE-14" value="" style="rounded=0;whiteSpace=wrap;html=1;strokeWidth=10;fillColor=#d5e8d4;strokeColor=#82b366;fillOpacity=80;" vertex="1" parent="Xc8OwGy_YWXIGkOXyG72-238">
          <mxGeometry x="-1633.8400000000004" y="925.19" width="1929.13" height="275.59" as="geometry" />
        </mxCell>
        <mxCell id="N9qgZzJZAJzPSqjrUuPE-15" value="" style="rounded=0;whiteSpace=wrap;html=1;strokeWidth=10;fillColor=#d5e8d4;strokeColor=#82b366;fillOpacity=80;" vertex="1" parent="Xc8OwGy_YWXIGkOXyG72-238">
          <mxGeometry x="-1633.8500000000004" y="1240.15" width="1929.13" height="275.59" as="geometry" />
        </mxCell>
        <mxCell id="N9qgZzJZAJzPSqjrUuPE-16" value="" style="rounded=0;whiteSpace=wrap;html=1;strokeWidth=10;fillColor=#d5e8d4;strokeColor=#82b366;fillOpacity=80;" vertex="1" parent="Xc8OwGy_YWXIGkOXyG72-238">
          <mxGeometry x="-1633.8450000000005" y="1555.105" width="1929.13" height="275.59" as="geometry" />
        </mxCell>
        <mxCell id="N9qgZzJZAJzPSqjrUuPE-17" value="" style="rounded=0;whiteSpace=wrap;html=1;strokeWidth=10;fillColor=#ffe6cc;strokeColor=#d79b00;fillOpacity=80;" vertex="1" parent="Xc8OwGy_YWXIGkOXyG72-238">
          <mxGeometry x="-1633.8400000000001" y="1870.0700000000002" width="1929.13" height="275.59" as="geometry" />
        </mxCell>
        <mxCell id="N9qgZzJZAJzPSqjrUuPE-18" value="" style="rounded=0;whiteSpace=wrap;html=1;strokeWidth=10;fillColor=#d5e8d4;strokeColor=#82b366;fillOpacity=80;" vertex="1" parent="Xc8OwGy_YWXIGkOXyG72-238">
          <mxGeometry x="-1633.8350000000003" y="2185.025" width="1929.13" height="275.59" as="geometry" />
        </mxCell>
        <mxCell id="N9qgZzJZAJzPSqjrUuPE-19" value="" style="rounded=0;whiteSpace=wrap;html=1;strokeWidth=10;fillColor=#d5e8d4;strokeColor=#82b366;fillOpacity=80;" vertex="1" parent="Xc8OwGy_YWXIGkOXyG72-238">
          <mxGeometry x="-1633.8450000000003" y="2499.985" width="1929.13" height="275.59" as="geometry" />
        </mxCell>
        <mxCell id="N9qgZzJZAJzPSqjrUuPE-20" value="" style="rounded=0;whiteSpace=wrap;html=1;strokeWidth=10;fillColor=#d5e8d4;strokeColor=#82b366;fillOpacity=80;" vertex="1" parent="Xc8OwGy_YWXIGkOXyG72-238">
          <mxGeometry x="-1633.8400000000004" y="2814.94" width="1929.13" height="275.59" as="geometry" />
        </mxCell>
        <mxCell id="N9qgZzJZAJzPSqjrUuPE-21" value="" style="rounded=0;whiteSpace=wrap;html=1;strokeWidth=10;fillColor=#647687;strokeColor=#314354;fillOpacity=80;fontColor=#ffffff;" vertex="1" parent="Xc8OwGy_YWXIGkOXyG72-238">
          <mxGeometry x="-1633.865" y="3129.915" width="1929.13" height="275.59" as="geometry" />
        </mxCell>
        <mxCell id="N9qgZzJZAJzPSqjrUuPE-22" value="" style="rounded=0;whiteSpace=wrap;html=1;strokeWidth=10;fillOpacity=80;fillColor=#b1ddf0;strokeColor=#10739e;" vertex="1" parent="Xc8OwGy_YWXIGkOXyG72-238">
          <mxGeometry x="-1633.8600000000001" y="3444.87" width="1929.13" height="275.59" as="geometry" />
        </mxCell>
        <mxCell id="N9qgZzJZAJzPSqjrUuPE-23" value="" style="rounded=0;whiteSpace=wrap;html=1;strokeWidth=10;fillColor=#d5e8d4;strokeColor=#82b366;fillOpacity=80;" vertex="1" parent="Xc8OwGy_YWXIGkOXyG72-238">
          <mxGeometry x="-1633.8700000000001" y="3759.83" width="1929.13" height="275.59" as="geometry" />
        </mxCell>
        <mxCell id="N9qgZzJZAJzPSqjrUuPE-24" value="" style="rounded=0;whiteSpace=wrap;html=1;strokeWidth=10;fillColor=#d5e8d4;strokeColor=#82b366;fillOpacity=80;" vertex="1" parent="Xc8OwGy_YWXIGkOXyG72-238">
          <mxGeometry x="-1633.8650000000002" y="4074.785" width="1929.13" height="275.59" as="geometry" />
        </mxCell>
        <mxCell id="N9qgZzJZAJzPSqjrUuPE-25" value="" style="rounded=0;whiteSpace=wrap;html=1;strokeWidth=10;fillColor=#d5e8d4;strokeColor=#82b366;fillOpacity=80;" vertex="1" parent="Xc8OwGy_YWXIGkOXyG72-238">
          <mxGeometry x="-1633.8600000000001" y="4389.750000000001" width="1929.13" height="275.59" as="geometry" />
        </mxCell>
        <mxCell id="N9qgZzJZAJzPSqjrUuPE-26" value="" style="rounded=0;whiteSpace=wrap;html=1;strokeWidth=10;fillColor=#d5e8d4;strokeColor=#82b366;fillOpacity=80;" vertex="1" parent="Xc8OwGy_YWXIGkOXyG72-238">
          <mxGeometry x="-1633.8550000000002" y="4704.705000000001" width="1929.13" height="275.59" as="geometry" />
        </mxCell>
        <mxCell id="N9qgZzJZAJzPSqjrUuPE-27" value="" style="rounded=0;whiteSpace=wrap;html=1;strokeWidth=10;fillColor=#d5e8d4;strokeColor=#82b366;fillOpacity=80;" vertex="1" parent="Xc8OwGy_YWXIGkOXyG72-238">
          <mxGeometry x="-1633.8650000000002" y="5019.665" width="1929.13" height="275.59" as="geometry" />
        </mxCell>
        <mxCell id="N9qgZzJZAJzPSqjrUuPE-28" value="" style="rounded=0;whiteSpace=wrap;html=1;strokeWidth=10;fillColor=#647687;strokeColor=#314354;fillOpacity=80;fontColor=#ffffff;" vertex="1" parent="Xc8OwGy_YWXIGkOXyG72-238">
          <mxGeometry x="-1633.8600000000004" y="5334.62" width="1929.13" height="275.59" as="geometry" />
        </mxCell>
        <mxCell id="N9qgZzJZAJzPSqjrUuPE-29" value="" style="rounded=0;whiteSpace=wrap;html=1;strokeWidth=10;fillColor=#f8cecc;strokeColor=#b85450;fillOpacity=80;" vertex="1" parent="Xc8OwGy_YWXIGkOXyG72-238">
          <mxGeometry x="334.6649999999999" y="-649.605" width="1929.13" height="275.59" as="geometry" />
        </mxCell>
        <mxCell id="N9qgZzJZAJzPSqjrUuPE-30" value="" style="rounded=0;whiteSpace=wrap;html=1;strokeWidth=10;fillColor=#f8cecc;strokeColor=#b85450;fillOpacity=80;" vertex="1" parent="Xc8OwGy_YWXIGkOXyG72-238">
          <mxGeometry x="334.6699999999998" y="-334.65" width="1929.13" height="275.59" as="geometry" />
        </mxCell>
        <mxCell id="N9qgZzJZAJzPSqjrUuPE-31" value="" style="rounded=0;whiteSpace=wrap;html=1;strokeWidth=10;fillColor=#647687;strokeColor=#314354;fillOpacity=80;fontColor=#ffffff;" vertex="1" parent="Xc8OwGy_YWXIGkOXyG72-238">
          <mxGeometry x="334.6599999999998" y="-19.689999999999948" width="1929.13" height="275.59" as="geometry" />
        </mxCell>
        <mxCell id="N9qgZzJZAJzPSqjrUuPE-32" value="" style="rounded=0;whiteSpace=wrap;html=1;strokeWidth=10;fillColor=#d5e8d4;strokeColor=#82b366;fillOpacity=80;" vertex="1" parent="Xc8OwGy_YWXIGkOXyG72-238">
          <mxGeometry x="334.6649999999997" y="295.26500000000004" width="1929.13" height="275.59" as="geometry" />
        </mxCell>
        <mxCell id="N9qgZzJZAJzPSqjrUuPE-33" value="" style="rounded=0;whiteSpace=wrap;html=1;strokeWidth=10;fillColor=#d5e8d4;strokeColor=#82b366;fillOpacity=80;" vertex="1" parent="Xc8OwGy_YWXIGkOXyG72-238">
          <mxGeometry x="334.6699999999998" y="610.23" width="1929.13" height="275.59" as="geometry" />
        </mxCell>
        <mxCell id="N9qgZzJZAJzPSqjrUuPE-34" value="" style="rounded=0;whiteSpace=wrap;html=1;strokeWidth=10;fillColor=#d5e8d4;strokeColor=#82b366;fillOpacity=80;" vertex="1" parent="Xc8OwGy_YWXIGkOXyG72-238">
          <mxGeometry x="334.67499999999967" y="925.185" width="1929.13" height="275.59" as="geometry" />
        </mxCell>
        <mxCell id="N9qgZzJZAJzPSqjrUuPE-35" value="" style="rounded=0;whiteSpace=wrap;html=1;strokeWidth=10;fillColor=#647687;strokeColor=#314354;fillOpacity=80;fontColor=#ffffff;" vertex="1" parent="Xc8OwGy_YWXIGkOXyG72-238">
          <mxGeometry x="334.6649999999997" y="1240.145" width="1929.13" height="275.59" as="geometry" />
        </mxCell>
        <mxCell id="N9qgZzJZAJzPSqjrUuPE-36" value="" style="rounded=0;whiteSpace=wrap;html=1;strokeWidth=10;fillColor=#d5e8d4;strokeColor=#82b366;fillOpacity=80;" vertex="1" parent="Xc8OwGy_YWXIGkOXyG72-238">
          <mxGeometry x="334.66999999999956" y="1555.1" width="1929.13" height="275.59" as="geometry" />
        </mxCell>
        <mxCell id="N9qgZzJZAJzPSqjrUuPE-37" value="" style="rounded=0;whiteSpace=wrap;html=1;strokeWidth=10;fillColor=#d5e8d4;strokeColor=#82b366;fillOpacity=80;" vertex="1" parent="Xc8OwGy_YWXIGkOXyG72-238">
          <mxGeometry x="334.6749999999999" y="1870.065" width="1929.13" height="275.59" as="geometry" />
        </mxCell>
        <mxCell id="N9qgZzJZAJzPSqjrUuPE-38" value="" style="rounded=0;whiteSpace=wrap;html=1;strokeWidth=10;fillColor=#647687;strokeColor=#314354;fillOpacity=80;fontColor=#ffffff;" vertex="1" parent="Xc8OwGy_YWXIGkOXyG72-238">
          <mxGeometry x="334.6799999999998" y="2185.02" width="1929.13" height="275.59" as="geometry" />
        </mxCell>
        <mxCell id="N9qgZzJZAJzPSqjrUuPE-39" value="" style="rounded=0;whiteSpace=wrap;html=1;strokeWidth=10;fillColor=#d5e8d4;strokeColor=#82b366;fillOpacity=80;" vertex="1" parent="Xc8OwGy_YWXIGkOXyG72-238">
          <mxGeometry x="334.6699999999998" y="2499.98" width="1929.13" height="275.59" as="geometry" />
        </mxCell>
        <mxCell id="N9qgZzJZAJzPSqjrUuPE-40" value="" style="rounded=0;whiteSpace=wrap;html=1;strokeWidth=10;fillColor=#d5e8d4;strokeColor=#82b366;fillOpacity=80;" vertex="1" parent="Xc8OwGy_YWXIGkOXyG72-238">
          <mxGeometry x="334.67499999999967" y="2814.935" width="1929.13" height="275.59" as="geometry" />
        </mxCell>
        <mxCell id="N9qgZzJZAJzPSqjrUuPE-41" value="" style="rounded=0;whiteSpace=wrap;html=1;strokeWidth=10;fillColor=#d5e8d4;strokeColor=#82b366;fillOpacity=80;" vertex="1" parent="Xc8OwGy_YWXIGkOXyG72-238">
          <mxGeometry x="334.65000000000003" y="3129.91" width="1929.13" height="275.59" as="geometry" />
        </mxCell>
        <mxCell id="N9qgZzJZAJzPSqjrUuPE-42" value="" style="rounded=0;whiteSpace=wrap;html=1;strokeWidth=10;fillOpacity=80;fillColor=#b1ddf0;strokeColor=#10739e;" vertex="1" parent="Xc8OwGy_YWXIGkOXyG72-238">
          <mxGeometry x="334.6549999999999" y="3444.865" width="1929.13" height="275.59" as="geometry" />
        </mxCell>
        <mxCell id="N9qgZzJZAJzPSqjrUuPE-43" value="" style="rounded=0;whiteSpace=wrap;html=1;strokeWidth=10;fillColor=#647687;strokeColor=#314354;fillOpacity=80;fontColor=#ffffff;" vertex="1" parent="Xc8OwGy_YWXIGkOXyG72-238">
          <mxGeometry x="334.6449999999999" y="3759.825" width="1929.13" height="275.59" as="geometry" />
        </mxCell>
        <mxCell id="N9qgZzJZAJzPSqjrUuPE-44" value="" style="rounded=0;whiteSpace=wrap;html=1;strokeWidth=10;fillColor=#d5e8d4;strokeColor=#82b366;fillOpacity=80;" vertex="1" parent="Xc8OwGy_YWXIGkOXyG72-238">
          <mxGeometry x="334.6499999999998" y="4074.7799999999997" width="1929.13" height="275.59" as="geometry" />
        </mxCell>
        <mxCell id="N9qgZzJZAJzPSqjrUuPE-45" value="" style="rounded=0;whiteSpace=wrap;html=1;strokeWidth=10;fillColor=#647687;strokeColor=#314354;fillOpacity=80;fontColor=#ffffff;" vertex="1" parent="Xc8OwGy_YWXIGkOXyG72-238">
          <mxGeometry x="334.6549999999999" y="4389.745000000002" width="1929.13" height="275.59" as="geometry" />
        </mxCell>
        <mxCell id="N9qgZzJZAJzPSqjrUuPE-46" value="" style="rounded=0;whiteSpace=wrap;html=1;strokeWidth=10;fillColor=#d5e8d4;strokeColor=#82b366;fillOpacity=80;" vertex="1" parent="Xc8OwGy_YWXIGkOXyG72-238">
          <mxGeometry x="334.6599999999998" y="4704.700000000002" width="1929.13" height="275.59" as="geometry" />
        </mxCell>
        <mxCell id="N9qgZzJZAJzPSqjrUuPE-47" value="" style="rounded=0;whiteSpace=wrap;html=1;strokeWidth=10;fillColor=#d5e8d4;strokeColor=#82b366;fillOpacity=80;" vertex="1" parent="Xc8OwGy_YWXIGkOXyG72-238">
          <mxGeometry x="334.6499999999998" y="5019.660000000001" width="1929.13" height="275.59" as="geometry" />
        </mxCell>
        <mxCell id="N9qgZzJZAJzPSqjrUuPE-48" value="" style="rounded=0;whiteSpace=wrap;html=1;strokeWidth=10;fillColor=#d5e8d4;strokeColor=#82b366;fillOpacity=80;" vertex="1" parent="Xc8OwGy_YWXIGkOXyG72-238">
          <mxGeometry x="334.6549999999997" y="5334.615000000001" width="1929.13" height="275.59" as="geometry" />
        </mxCell>
        <mxCell id="N9qgZzJZAJzPSqjrUuPE-3" value="numbers" parent="0" />
        <mxCell id="Xc8OwGy_YWXIGkOXyG72-2" value="" style="ellipse;whiteSpace=wrap;html=1;aspect=fixed;strokeWidth=25;fillColor=#f5f5f5;strokeColor=#666666;fontColor=#333333;" parent="N9qgZzJZAJzPSqjrUuPE-3" vertex="1">
          <mxGeometry y="-629.92" width="236.22" height="236.22" as="geometry" />
        </mxCell>
        <mxCell id="Xc8OwGy_YWXIGkOXyG72-74" value="1" style="text;html=1;strokeColor=none;fillColor=none;align=center;verticalAlign=middle;whiteSpace=wrap;rounded=0;strokeWidth=25;fontFamily=Economica;fontSource=https%3A%2F%2Ffonts.googleapis.com%2Fcss%3Ffamily%3DEconomica;fontSize=200;" parent="N9qgZzJZAJzPSqjrUuPE-3" vertex="1">
          <mxGeometry x="-0.04500000000007276" y="-629.915" width="236.22" height="236.22" as="geometry" />
        </mxCell>
        <mxCell id="Xc8OwGy_YWXIGkOXyG72-3" value="" style="ellipse;whiteSpace=wrap;html=1;aspect=fixed;strokeWidth=25;fillColor=#f5f5f5;strokeColor=#666666;fontColor=#333333;" parent="N9qgZzJZAJzPSqjrUuPE-3" vertex="1">
          <mxGeometry x="393.7" y="-629.92" width="236.22" height="236.22" as="geometry" />
        </mxCell>
        <mxCell id="Xc8OwGy_YWXIGkOXyG72-4" value="" style="ellipse;whiteSpace=wrap;html=1;aspect=fixed;strokeWidth=25;fillColor=#f5f5f5;strokeColor=#666666;fontColor=#333333;" parent="N9qgZzJZAJzPSqjrUuPE-3" vertex="1">
          <mxGeometry y="-314.96" width="236.22" height="236.22" as="geometry" />
        </mxCell>
        <mxCell id="Xc8OwGy_YWXIGkOXyG72-5" value="" style="ellipse;whiteSpace=wrap;html=1;aspect=fixed;strokeWidth=25;fillColor=#f5f5f5;strokeColor=#666666;fontColor=#333333;" parent="N9qgZzJZAJzPSqjrUuPE-3" vertex="1">
          <mxGeometry x="390" y="-314.96" width="239.92" height="239.92" as="geometry" />
        </mxCell>
        <mxCell id="Xc8OwGy_YWXIGkOXyG72-34" value="" style="ellipse;whiteSpace=wrap;html=1;aspect=fixed;strokeWidth=25;fillColor=#f5f5f5;strokeColor=#666666;fontColor=#333333;" parent="N9qgZzJZAJzPSqjrUuPE-3" vertex="1">
          <mxGeometry x="0.004999999999999005" y="0.0049999999999954525" width="236.22" height="236.22" as="geometry" />
        </mxCell>
        <mxCell id="Xc8OwGy_YWXIGkOXyG72-35" value="" style="ellipse;whiteSpace=wrap;html=1;aspect=fixed;strokeWidth=25;fillColor=#f5f5f5;strokeColor=#666666;fontColor=#333333;" parent="N9qgZzJZAJzPSqjrUuPE-3" vertex="1">
          <mxGeometry x="393.705" y="0.0049999999999954525" width="236.22" height="236.22" as="geometry" />
        </mxCell>
        <mxCell id="Xc8OwGy_YWXIGkOXyG72-36" value="" style="ellipse;whiteSpace=wrap;html=1;aspect=fixed;strokeWidth=25;fillColor=#f5f5f5;strokeColor=#666666;fontColor=#333333;" parent="N9qgZzJZAJzPSqjrUuPE-3" vertex="1">
          <mxGeometry x="0.004999999999999005" y="314.96500000000003" width="236.22" height="236.22" as="geometry" />
        </mxCell>
        <mxCell id="Xc8OwGy_YWXIGkOXyG72-37" value="" style="ellipse;whiteSpace=wrap;html=1;aspect=fixed;strokeWidth=25;fillColor=#f5f5f5;strokeColor=#666666;fontColor=#333333;" parent="N9qgZzJZAJzPSqjrUuPE-3" vertex="1">
          <mxGeometry x="390.005" y="314.96500000000003" width="239.92" height="239.92" as="geometry" />
        </mxCell>
        <mxCell id="Xc8OwGy_YWXIGkOXyG72-38" value="" style="ellipse;whiteSpace=wrap;html=1;aspect=fixed;strokeWidth=25;fillColor=#f5f5f5;strokeColor=#666666;fontColor=#333333;" parent="N9qgZzJZAJzPSqjrUuPE-3" vertex="1">
          <mxGeometry x="-0.005000000000002558" y="629.9250000000001" width="236.22" height="236.22" as="geometry" />
        </mxCell>
        <mxCell id="Xc8OwGy_YWXIGkOXyG72-39" value="" style="ellipse;whiteSpace=wrap;html=1;aspect=fixed;strokeWidth=25;fillColor=#f5f5f5;strokeColor=#666666;fontColor=#333333;" parent="N9qgZzJZAJzPSqjrUuPE-3" vertex="1">
          <mxGeometry x="393.695" y="629.9250000000001" width="236.22" height="236.22" as="geometry" />
        </mxCell>
        <mxCell id="Xc8OwGy_YWXIGkOXyG72-40" value="" style="ellipse;whiteSpace=wrap;html=1;aspect=fixed;strokeWidth=25;fillColor=#f5f5f5;strokeColor=#666666;fontColor=#333333;" parent="N9qgZzJZAJzPSqjrUuPE-3" vertex="1">
          <mxGeometry x="-0.005000000000002558" y="944.8850000000001" width="236.22" height="236.22" as="geometry" />
        </mxCell>
        <mxCell id="Xc8OwGy_YWXIGkOXyG72-41" value="" style="ellipse;whiteSpace=wrap;html=1;aspect=fixed;strokeWidth=25;fillColor=#f5f5f5;strokeColor=#666666;fontColor=#333333;" parent="N9qgZzJZAJzPSqjrUuPE-3" vertex="1">
          <mxGeometry x="389.995" y="944.8850000000001" width="239.92" height="239.92" as="geometry" />
        </mxCell>
        <mxCell id="Xc8OwGy_YWXIGkOXyG72-42" value="" style="ellipse;whiteSpace=wrap;html=1;aspect=fixed;strokeWidth=25;fillColor=#f5f5f5;strokeColor=#666666;fontColor=#333333;" parent="N9qgZzJZAJzPSqjrUuPE-3" vertex="1">
          <mxGeometry x="-3.552713678800501e-15" y="1259.8500000000001" width="236.22" height="236.22" as="geometry" />
        </mxCell>
        <mxCell id="Xc8OwGy_YWXIGkOXyG72-43" value="" style="ellipse;whiteSpace=wrap;html=1;aspect=fixed;strokeWidth=25;fillColor=#f5f5f5;strokeColor=#666666;fontColor=#333333;" parent="N9qgZzJZAJzPSqjrUuPE-3" vertex="1">
          <mxGeometry x="393.7" y="1259.8500000000001" width="236.22" height="236.22" as="geometry" />
        </mxCell>
        <mxCell id="Xc8OwGy_YWXIGkOXyG72-44" value="" style="ellipse;whiteSpace=wrap;html=1;aspect=fixed;strokeWidth=25;fillColor=#f5f5f5;strokeColor=#666666;fontColor=#333333;" parent="N9qgZzJZAJzPSqjrUuPE-3" vertex="1">
          <mxGeometry x="-3.552713678800501e-15" y="1574.8100000000002" width="236.22" height="236.22" as="geometry" />
        </mxCell>
        <mxCell id="Xc8OwGy_YWXIGkOXyG72-45" value="" style="ellipse;whiteSpace=wrap;html=1;aspect=fixed;strokeWidth=25;fillColor=#f5f5f5;strokeColor=#666666;fontColor=#333333;" parent="N9qgZzJZAJzPSqjrUuPE-3" vertex="1">
          <mxGeometry x="390" y="1574.8100000000002" width="239.92" height="239.92" as="geometry" />
        </mxCell>
        <mxCell id="Xc8OwGy_YWXIGkOXyG72-46" value="" style="ellipse;whiteSpace=wrap;html=1;aspect=fixed;strokeWidth=25;fillColor=#f5f5f5;strokeColor=#666666;fontColor=#333333;" parent="N9qgZzJZAJzPSqjrUuPE-3" vertex="1">
          <mxGeometry x="-0.015000000000000568" y="1889.7649999999999" width="236.22" height="236.22" as="geometry" />
        </mxCell>
        <mxCell id="Xc8OwGy_YWXIGkOXyG72-47" value="" style="ellipse;whiteSpace=wrap;html=1;aspect=fixed;strokeWidth=25;fillColor=#f5f5f5;strokeColor=#666666;fontColor=#333333;" parent="N9qgZzJZAJzPSqjrUuPE-3" vertex="1">
          <mxGeometry x="393.685" y="1889.7649999999999" width="236.22" height="236.22" as="geometry" />
        </mxCell>
        <mxCell id="Xc8OwGy_YWXIGkOXyG72-48" value="" style="ellipse;whiteSpace=wrap;html=1;aspect=fixed;strokeWidth=25;fillColor=#f5f5f5;strokeColor=#666666;fontColor=#333333;" parent="N9qgZzJZAJzPSqjrUuPE-3" vertex="1">
          <mxGeometry x="-0.015000000000000568" y="2204.725" width="236.22" height="236.22" as="geometry" />
        </mxCell>
        <mxCell id="Xc8OwGy_YWXIGkOXyG72-49" value="" style="ellipse;whiteSpace=wrap;html=1;aspect=fixed;strokeWidth=25;fillColor=#f5f5f5;strokeColor=#666666;fontColor=#333333;" parent="N9qgZzJZAJzPSqjrUuPE-3" vertex="1">
          <mxGeometry x="389.985" y="2204.725" width="239.92" height="239.92" as="geometry" />
        </mxCell>
        <mxCell id="Xc8OwGy_YWXIGkOXyG72-50" value="" style="ellipse;whiteSpace=wrap;html=1;aspect=fixed;strokeWidth=25;fillColor=#f5f5f5;strokeColor=#666666;fontColor=#333333;" parent="N9qgZzJZAJzPSqjrUuPE-3" vertex="1">
          <mxGeometry x="-0.010000000000001563" y="2519.69" width="236.22" height="236.22" as="geometry" />
        </mxCell>
        <mxCell id="Xc8OwGy_YWXIGkOXyG72-51" value="" style="ellipse;whiteSpace=wrap;html=1;aspect=fixed;strokeWidth=25;fillColor=#f5f5f5;strokeColor=#666666;fontColor=#333333;" parent="N9qgZzJZAJzPSqjrUuPE-3" vertex="1">
          <mxGeometry x="393.69" y="2519.69" width="236.22" height="236.22" as="geometry" />
        </mxCell>
        <mxCell id="Xc8OwGy_YWXIGkOXyG72-52" value="" style="ellipse;whiteSpace=wrap;html=1;aspect=fixed;strokeWidth=25;fillColor=#f5f5f5;strokeColor=#666666;fontColor=#333333;" parent="N9qgZzJZAJzPSqjrUuPE-3" vertex="1">
          <mxGeometry x="-0.010000000000001563" y="2834.65" width="236.22" height="236.22" as="geometry" />
        </mxCell>
        <mxCell id="Xc8OwGy_YWXIGkOXyG72-53" value="" style="ellipse;whiteSpace=wrap;html=1;aspect=fixed;strokeWidth=25;fillColor=#f5f5f5;strokeColor=#666666;fontColor=#333333;" parent="N9qgZzJZAJzPSqjrUuPE-3" vertex="1">
          <mxGeometry x="389.99" y="2834.65" width="239.92" height="239.92" as="geometry" />
        </mxCell>
        <mxCell id="Xc8OwGy_YWXIGkOXyG72-54" value="" style="ellipse;whiteSpace=wrap;html=1;aspect=fixed;strokeWidth=25;fillColor=#f5f5f5;strokeColor=#666666;fontColor=#333333;" parent="N9qgZzJZAJzPSqjrUuPE-3" vertex="1">
          <mxGeometry x="-0.020000000000003126" y="3149.61" width="236.22" height="236.22" as="geometry" />
        </mxCell>
        <mxCell id="Xc8OwGy_YWXIGkOXyG72-55" value="" style="ellipse;whiteSpace=wrap;html=1;aspect=fixed;strokeWidth=25;fillColor=#f5f5f5;strokeColor=#666666;fontColor=#333333;" parent="N9qgZzJZAJzPSqjrUuPE-3" vertex="1">
          <mxGeometry x="393.68" y="3149.61" width="236.22" height="236.22" as="geometry" />
        </mxCell>
        <mxCell id="Xc8OwGy_YWXIGkOXyG72-56" value="" style="ellipse;whiteSpace=wrap;html=1;aspect=fixed;strokeWidth=25;fillColor=#f5f5f5;strokeColor=#666666;fontColor=#333333;" parent="N9qgZzJZAJzPSqjrUuPE-3" vertex="1">
          <mxGeometry x="-0.020000000000003126" y="3464.57" width="236.22" height="236.22" as="geometry" />
        </mxCell>
        <mxCell id="Xc8OwGy_YWXIGkOXyG72-57" value="" style="ellipse;whiteSpace=wrap;html=1;aspect=fixed;strokeWidth=25;fillColor=#f5f5f5;strokeColor=#666666;fontColor=#333333;" parent="N9qgZzJZAJzPSqjrUuPE-3" vertex="1">
          <mxGeometry x="389.98" y="3464.57" width="239.92" height="239.92" as="geometry" />
        </mxCell>
        <mxCell id="Xc8OwGy_YWXIGkOXyG72-58" value="" style="ellipse;whiteSpace=wrap;html=1;aspect=fixed;strokeWidth=25;fillColor=#f5f5f5;strokeColor=#666666;fontColor=#333333;" parent="N9qgZzJZAJzPSqjrUuPE-3" vertex="1">
          <mxGeometry x="-0.015000000000004121" y="3779.535" width="236.22" height="236.22" as="geometry" />
        </mxCell>
        <mxCell id="Xc8OwGy_YWXIGkOXyG72-59" value="" style="ellipse;whiteSpace=wrap;html=1;aspect=fixed;strokeWidth=25;fillColor=#f5f5f5;strokeColor=#666666;fontColor=#333333;" parent="N9qgZzJZAJzPSqjrUuPE-3" vertex="1">
          <mxGeometry x="393.685" y="3779.535" width="236.22" height="236.22" as="geometry" />
        </mxCell>
        <mxCell id="Xc8OwGy_YWXIGkOXyG72-60" value="" style="ellipse;whiteSpace=wrap;html=1;aspect=fixed;strokeWidth=25;fillColor=#f5f5f5;strokeColor=#666666;fontColor=#333333;" parent="N9qgZzJZAJzPSqjrUuPE-3" vertex="1">
          <mxGeometry x="-0.015000000000004121" y="4094.495" width="236.22" height="236.22" as="geometry" />
        </mxCell>
        <mxCell id="Xc8OwGy_YWXIGkOXyG72-61" value="" style="ellipse;whiteSpace=wrap;html=1;aspect=fixed;strokeWidth=25;fillColor=#f5f5f5;strokeColor=#666666;fontColor=#333333;" parent="N9qgZzJZAJzPSqjrUuPE-3" vertex="1">
          <mxGeometry x="389.985" y="4094.495" width="239.92" height="239.92" as="geometry" />
        </mxCell>
        <mxCell id="Xc8OwGy_YWXIGkOXyG72-62" value="" style="ellipse;whiteSpace=wrap;html=1;aspect=fixed;strokeWidth=25;fillColor=#f5f5f5;strokeColor=#666666;fontColor=#333333;" parent="N9qgZzJZAJzPSqjrUuPE-3" vertex="1">
          <mxGeometry x="0.004999999999999005" y="4409.435" width="236.22" height="236.22" as="geometry" />
        </mxCell>
        <mxCell id="Xc8OwGy_YWXIGkOXyG72-63" value="" style="ellipse;whiteSpace=wrap;html=1;aspect=fixed;strokeWidth=25;fillColor=#f5f5f5;strokeColor=#666666;fontColor=#333333;" parent="N9qgZzJZAJzPSqjrUuPE-3" vertex="1">
          <mxGeometry x="393.705" y="4409.435" width="236.22" height="236.22" as="geometry" />
        </mxCell>
        <mxCell id="Xc8OwGy_YWXIGkOXyG72-64" value="" style="ellipse;whiteSpace=wrap;html=1;aspect=fixed;strokeWidth=25;fillColor=#f5f5f5;strokeColor=#666666;fontColor=#333333;" parent="N9qgZzJZAJzPSqjrUuPE-3" vertex="1">
          <mxGeometry x="0.004999999999999005" y="4724.395" width="236.22" height="236.22" as="geometry" />
        </mxCell>
        <mxCell id="Xc8OwGy_YWXIGkOXyG72-65" value="" style="ellipse;whiteSpace=wrap;html=1;aspect=fixed;strokeWidth=25;fillColor=#f5f5f5;strokeColor=#666666;fontColor=#333333;" parent="N9qgZzJZAJzPSqjrUuPE-3" vertex="1">
          <mxGeometry x="390.005" y="4724.395" width="239.92" height="239.92" as="geometry" />
        </mxCell>
        <mxCell id="Xc8OwGy_YWXIGkOXyG72-66" value="" style="ellipse;whiteSpace=wrap;html=1;aspect=fixed;strokeWidth=25;fillColor=#f5f5f5;strokeColor=#666666;fontColor=#333333;" parent="N9qgZzJZAJzPSqjrUuPE-3" vertex="1">
          <mxGeometry x="0.00999999999999801" y="5039.36" width="236.22" height="236.22" as="geometry" />
        </mxCell>
        <mxCell id="Xc8OwGy_YWXIGkOXyG72-67" value="" style="ellipse;whiteSpace=wrap;html=1;aspect=fixed;strokeWidth=25;fillColor=#f5f5f5;strokeColor=#666666;fontColor=#333333;" parent="N9qgZzJZAJzPSqjrUuPE-3" vertex="1">
          <mxGeometry x="393.71" y="5039.36" width="236.22" height="236.22" as="geometry" />
        </mxCell>
        <mxCell id="Xc8OwGy_YWXIGkOXyG72-68" value="" style="ellipse;whiteSpace=wrap;html=1;aspect=fixed;strokeWidth=25;fillColor=#f5f5f5;strokeColor=#666666;fontColor=#333333;" parent="N9qgZzJZAJzPSqjrUuPE-3" vertex="1">
          <mxGeometry x="0.00999999999999801" y="5354.32" width="236.22" height="236.22" as="geometry" />
        </mxCell>
        <mxCell id="Xc8OwGy_YWXIGkOXyG72-69" value="" style="ellipse;whiteSpace=wrap;html=1;aspect=fixed;strokeWidth=25;fillColor=#f5f5f5;strokeColor=#666666;fontColor=#333333;" parent="N9qgZzJZAJzPSqjrUuPE-3" vertex="1">
          <mxGeometry x="390.01" y="5354.32" width="239.92" height="239.92" as="geometry" />
        </mxCell>
        <mxCell id="Xc8OwGy_YWXIGkOXyG72-78" value="3" style="text;html=1;strokeColor=none;fillColor=none;align=center;verticalAlign=middle;whiteSpace=wrap;rounded=0;strokeWidth=25;fontFamily=Economica;fontSource=https%3A%2F%2Ffonts.googleapis.com%2Fcss%3Ffamily%3DEconomica;fontSize=200;" parent="N9qgZzJZAJzPSqjrUuPE-3" vertex="1">
          <mxGeometry x="-0.04000000000007731" y="-313.11" width="236.22" height="236.22" as="geometry" />
        </mxCell>
        <mxCell id="Xc8OwGy_YWXIGkOXyG72-79" value="4" style="text;html=1;strokeColor=none;fillColor=none;align=center;verticalAlign=middle;whiteSpace=wrap;rounded=0;strokeWidth=25;fontFamily=Economica;fontSource=https%3A%2F%2Ffonts.googleapis.com%2Fcss%3Ffamily%3DEconomica;fontSize=200;" parent="N9qgZzJZAJzPSqjrUuPE-3" vertex="1">
          <mxGeometry x="393.66499999999974" y="-313.1150000000001" width="236.22" height="236.22" as="geometry" />
        </mxCell>
        <mxCell id="Xc8OwGy_YWXIGkOXyG72-75" value="2" style="text;html=1;strokeColor=none;fillColor=none;align=center;verticalAlign=middle;whiteSpace=wrap;rounded=0;strokeWidth=25;fontFamily=Economica;fontSource=https%3A%2F%2Ffonts.googleapis.com%2Fcss%3Ffamily%3DEconomica;fontSize=200;" parent="N9qgZzJZAJzPSqjrUuPE-3" vertex="1">
          <mxGeometry x="393.65999999999985" y="-629.9200000000001" width="236.22" height="236.22" as="geometry" />
        </mxCell>
        <mxCell id="Xc8OwGy_YWXIGkOXyG72-80" value="7" style="text;html=1;strokeColor=none;fillColor=none;align=center;verticalAlign=middle;whiteSpace=wrap;rounded=0;strokeWidth=25;fontFamily=Economica;fontSource=https%3A%2F%2Ffonts.googleapis.com%2Fcss%3Ffamily%3DEconomica;fontSize=200;" parent="N9qgZzJZAJzPSqjrUuPE-3" vertex="1">
          <mxGeometry x="-0.035000000000081855" y="314.965" width="236.22" height="236.22" as="geometry" />
        </mxCell>
        <mxCell id="Xc8OwGy_YWXIGkOXyG72-81" value="8" style="text;html=1;strokeColor=none;fillColor=none;align=center;verticalAlign=middle;whiteSpace=wrap;rounded=0;strokeWidth=25;fontFamily=Economica;fontSource=https%3A%2F%2Ffonts.googleapis.com%2Fcss%3Ffamily%3DEconomica;fontSize=200;" parent="N9qgZzJZAJzPSqjrUuPE-3" vertex="1">
          <mxGeometry x="393.6699999999996" y="314.95999999999987" width="236.22" height="236.22" as="geometry" />
        </mxCell>
        <mxCell id="Xc8OwGy_YWXIGkOXyG72-82" value="6" style="text;html=1;strokeColor=none;fillColor=none;align=center;verticalAlign=middle;whiteSpace=wrap;rounded=0;strokeWidth=25;fontFamily=Economica;fontSource=https%3A%2F%2Ffonts.googleapis.com%2Fcss%3Ffamily%3DEconomica;fontSize=200;" parent="N9qgZzJZAJzPSqjrUuPE-3" vertex="1">
          <mxGeometry x="393.66499999999974" y="-1.845000000000141" width="236.22" height="236.22" as="geometry" />
        </mxCell>
        <mxCell id="Xc8OwGy_YWXIGkOXyG72-83" value="5" style="text;html=1;strokeColor=none;fillColor=none;align=center;verticalAlign=middle;whiteSpace=wrap;rounded=0;strokeWidth=25;fontFamily=Economica;fontSource=https%3A%2F%2Ffonts.googleapis.com%2Fcss%3Ffamily%3DEconomica;fontSize=200;" parent="N9qgZzJZAJzPSqjrUuPE-3" vertex="1">
          <mxGeometry x="-0.04000000000007731" y="-1.8400000000000318" width="236.22" height="236.22" as="geometry" />
        </mxCell>
        <mxCell id="Xc8OwGy_YWXIGkOXyG72-84" value="11" style="text;html=1;strokeColor=none;fillColor=none;align=center;verticalAlign=middle;whiteSpace=wrap;rounded=0;strokeWidth=25;fontFamily=Economica;fontSource=https%3A%2F%2Ffonts.googleapis.com%2Fcss%3Ffamily%3DEconomica;fontSize=200;" parent="N9qgZzJZAJzPSqjrUuPE-3" vertex="1">
          <mxGeometry x="-0.035000000000081855" y="946.7350000000001" width="236.22" height="236.22" as="geometry" />
        </mxCell>
        <mxCell id="Xc8OwGy_YWXIGkOXyG72-85" value="12" style="text;html=1;strokeColor=none;fillColor=none;align=center;verticalAlign=middle;whiteSpace=wrap;rounded=0;strokeWidth=25;fontFamily=Economica;fontSource=https%3A%2F%2Ffonts.googleapis.com%2Fcss%3Ffamily%3DEconomica;fontSize=200;" parent="N9qgZzJZAJzPSqjrUuPE-3" vertex="1">
          <mxGeometry x="393.6699999999996" y="946.73" width="236.22" height="236.22" as="geometry" />
        </mxCell>
        <mxCell id="Xc8OwGy_YWXIGkOXyG72-86" value="10" style="text;html=1;strokeColor=none;fillColor=none;align=center;verticalAlign=middle;whiteSpace=wrap;rounded=0;strokeWidth=25;fontFamily=Economica;fontSource=https%3A%2F%2Ffonts.googleapis.com%2Fcss%3Ffamily%3DEconomica;fontSize=200;" parent="N9qgZzJZAJzPSqjrUuPE-3" vertex="1">
          <mxGeometry x="393.66499999999974" y="629.925" width="236.22" height="236.22" as="geometry" />
        </mxCell>
        <mxCell id="Xc8OwGy_YWXIGkOXyG72-87" value="9" style="text;html=1;strokeColor=none;fillColor=none;align=center;verticalAlign=middle;whiteSpace=wrap;rounded=0;strokeWidth=25;fontFamily=Economica;fontSource=https%3A%2F%2Ffonts.googleapis.com%2Fcss%3Ffamily%3DEconomica;fontSize=200;" parent="N9qgZzJZAJzPSqjrUuPE-3" vertex="1">
          <mxGeometry x="-0.04000000000007731" y="629.9300000000001" width="236.22" height="236.22" as="geometry" />
        </mxCell>
        <mxCell id="Xc8OwGy_YWXIGkOXyG72-88" value="15" style="text;html=1;strokeColor=none;fillColor=none;align=center;verticalAlign=middle;whiteSpace=wrap;rounded=0;strokeWidth=25;fontFamily=Economica;fontSource=https%3A%2F%2Ffonts.googleapis.com%2Fcss%3Ffamily%3DEconomica;fontSize=200;" parent="N9qgZzJZAJzPSqjrUuPE-3" vertex="1">
          <mxGeometry x="-0.030000000000086402" y="1574.81" width="236.22" height="236.22" as="geometry" />
        </mxCell>
        <mxCell id="Xc8OwGy_YWXIGkOXyG72-89" value="16" style="text;html=1;strokeColor=none;fillColor=none;align=center;verticalAlign=middle;whiteSpace=wrap;rounded=0;strokeWidth=25;fontFamily=Economica;fontSource=https%3A%2F%2Ffonts.googleapis.com%2Fcss%3Ffamily%3DEconomica;fontSize=200;" parent="N9qgZzJZAJzPSqjrUuPE-3" vertex="1">
          <mxGeometry x="393.6749999999995" y="1574.8049999999998" width="236.22" height="236.22" as="geometry" />
        </mxCell>
        <mxCell id="Xc8OwGy_YWXIGkOXyG72-90" value="14" style="text;html=1;strokeColor=none;fillColor=none;align=center;verticalAlign=middle;whiteSpace=wrap;rounded=0;strokeWidth=25;fontFamily=Economica;fontSource=https%3A%2F%2Ffonts.googleapis.com%2Fcss%3Ffamily%3DEconomica;fontSize=200;" parent="N9qgZzJZAJzPSqjrUuPE-3" vertex="1">
          <mxGeometry x="393.6699999999996" y="1258" width="236.22" height="236.22" as="geometry" />
        </mxCell>
        <mxCell id="Xc8OwGy_YWXIGkOXyG72-91" value="13" style="text;html=1;strokeColor=none;fillColor=none;align=center;verticalAlign=middle;whiteSpace=wrap;rounded=0;strokeWidth=25;fontFamily=Economica;fontSource=https%3A%2F%2Ffonts.googleapis.com%2Fcss%3Ffamily%3DEconomica;fontSize=200;" parent="N9qgZzJZAJzPSqjrUuPE-3" vertex="1">
          <mxGeometry x="-0.035000000000081855" y="1258.005" width="236.22" height="236.22" as="geometry" />
        </mxCell>
        <mxCell id="Xc8OwGy_YWXIGkOXyG72-92" value="19" style="text;html=1;strokeColor=none;fillColor=none;align=center;verticalAlign=middle;whiteSpace=wrap;rounded=0;strokeWidth=25;fontFamily=Economica;fontSource=https%3A%2F%2Ffonts.googleapis.com%2Fcss%3Ffamily%3DEconomica;fontSize=200;" parent="N9qgZzJZAJzPSqjrUuPE-3" vertex="1">
          <mxGeometry x="-0.05500000000017735" y="2206.575" width="236.22" height="236.22" as="geometry" />
        </mxCell>
        <mxCell id="Xc8OwGy_YWXIGkOXyG72-93" value="20" style="text;html=1;strokeColor=none;fillColor=none;align=center;verticalAlign=middle;whiteSpace=wrap;rounded=0;strokeWidth=25;fontFamily=Economica;fontSource=https%3A%2F%2Ffonts.googleapis.com%2Fcss%3Ffamily%3DEconomica;fontSize=200;" parent="N9qgZzJZAJzPSqjrUuPE-3" vertex="1">
          <mxGeometry x="393.64999999999964" y="2206.5699999999997" width="236.22" height="236.22" as="geometry" />
        </mxCell>
        <mxCell id="Xc8OwGy_YWXIGkOXyG72-94" value="18" style="text;html=1;strokeColor=none;fillColor=none;align=center;verticalAlign=middle;whiteSpace=wrap;rounded=0;strokeWidth=25;fontFamily=Economica;fontSource=https%3A%2F%2Ffonts.googleapis.com%2Fcss%3Ffamily%3DEconomica;fontSize=200;" parent="N9qgZzJZAJzPSqjrUuPE-3" vertex="1">
          <mxGeometry x="393.64499999999975" y="1889.7649999999999" width="236.22" height="236.22" as="geometry" />
        </mxCell>
        <mxCell id="Xc8OwGy_YWXIGkOXyG72-95" value="17" style="text;html=1;strokeColor=none;fillColor=none;align=center;verticalAlign=middle;whiteSpace=wrap;rounded=0;strokeWidth=25;fontFamily=Economica;fontSource=https%3A%2F%2Ffonts.googleapis.com%2Fcss%3Ffamily%3DEconomica;fontSize=200;" parent="N9qgZzJZAJzPSqjrUuPE-3" vertex="1">
          <mxGeometry x="-0.060000000000172804" y="1889.77" width="236.22" height="236.22" as="geometry" />
        </mxCell>
        <mxCell id="Xc8OwGy_YWXIGkOXyG72-96" value="23" style="text;html=1;strokeColor=none;fillColor=none;align=center;verticalAlign=middle;whiteSpace=wrap;rounded=0;strokeWidth=25;fontFamily=Economica;fontSource=https%3A%2F%2Ffonts.googleapis.com%2Fcss%3Ffamily%3DEconomica;fontSize=200;" parent="N9qgZzJZAJzPSqjrUuPE-3" vertex="1">
          <mxGeometry x="-0.0500000000001819" y="2834.65" width="236.22" height="236.22" as="geometry" />
        </mxCell>
        <mxCell id="Xc8OwGy_YWXIGkOXyG72-97" value="24" style="text;html=1;strokeColor=none;fillColor=none;align=center;verticalAlign=middle;whiteSpace=wrap;rounded=0;strokeWidth=25;fontFamily=Economica;fontSource=https%3A%2F%2Ffonts.googleapis.com%2Fcss%3Ffamily%3DEconomica;fontSize=200;" parent="N9qgZzJZAJzPSqjrUuPE-3" vertex="1">
          <mxGeometry x="393.6549999999995" y="2834.645" width="236.22" height="236.22" as="geometry" />
        </mxCell>
        <mxCell id="Xc8OwGy_YWXIGkOXyG72-98" value="22" style="text;html=1;strokeColor=none;fillColor=none;align=center;verticalAlign=middle;whiteSpace=wrap;rounded=0;strokeWidth=25;fontFamily=Economica;fontSource=https%3A%2F%2Ffonts.googleapis.com%2Fcss%3Ffamily%3DEconomica;fontSize=200;" parent="N9qgZzJZAJzPSqjrUuPE-3" vertex="1">
          <mxGeometry x="393.64999999999964" y="2517.8399999999997" width="236.22" height="236.22" as="geometry" />
        </mxCell>
        <mxCell id="Xc8OwGy_YWXIGkOXyG72-99" value="21" style="text;html=1;strokeColor=none;fillColor=none;align=center;verticalAlign=middle;whiteSpace=wrap;rounded=0;strokeWidth=25;fontFamily=Economica;fontSource=https%3A%2F%2Ffonts.googleapis.com%2Fcss%3Ffamily%3DEconomica;fontSize=200;" parent="N9qgZzJZAJzPSqjrUuPE-3" vertex="1">
          <mxGeometry x="-0.05500000000017735" y="2517.845" width="236.22" height="236.22" as="geometry" />
        </mxCell>
        <mxCell id="Xc8OwGy_YWXIGkOXyG72-100" value="27" style="text;html=1;strokeColor=none;fillColor=none;align=center;verticalAlign=middle;whiteSpace=wrap;rounded=0;strokeWidth=25;fontFamily=Economica;fontSource=https%3A%2F%2Ffonts.googleapis.com%2Fcss%3Ffamily%3DEconomica;fontSize=200;" parent="N9qgZzJZAJzPSqjrUuPE-3" vertex="1">
          <mxGeometry x="-0.0500000000001819" y="3466.42" width="236.22" height="236.22" as="geometry" />
        </mxCell>
        <mxCell id="Xc8OwGy_YWXIGkOXyG72-101" value="28" style="text;html=1;strokeColor=none;fillColor=none;align=center;verticalAlign=middle;whiteSpace=wrap;rounded=0;strokeWidth=25;fontFamily=Economica;fontSource=https%3A%2F%2Ffonts.googleapis.com%2Fcss%3Ffamily%3DEconomica;fontSize=200;" parent="N9qgZzJZAJzPSqjrUuPE-3" vertex="1">
          <mxGeometry x="393.6549999999995" y="3466.415" width="236.22" height="236.22" as="geometry" />
        </mxCell>
        <mxCell id="Xc8OwGy_YWXIGkOXyG72-102" value="26" style="text;html=1;strokeColor=none;fillColor=none;align=center;verticalAlign=middle;whiteSpace=wrap;rounded=0;strokeWidth=25;fontFamily=Economica;fontSource=https%3A%2F%2Ffonts.googleapis.com%2Fcss%3Ffamily%3DEconomica;fontSize=200;" parent="N9qgZzJZAJzPSqjrUuPE-3" vertex="1">
          <mxGeometry x="393.64999999999964" y="3149.6099999999997" width="236.22" height="236.22" as="geometry" />
        </mxCell>
        <mxCell id="Xc8OwGy_YWXIGkOXyG72-103" value="25" style="text;html=1;strokeColor=none;fillColor=none;align=center;verticalAlign=middle;whiteSpace=wrap;rounded=0;strokeWidth=25;fontFamily=Economica;fontSource=https%3A%2F%2Ffonts.googleapis.com%2Fcss%3Ffamily%3DEconomica;fontSize=200;" parent="N9qgZzJZAJzPSqjrUuPE-3" vertex="1">
          <mxGeometry x="-0.05500000000017735" y="3149.615" width="236.22" height="236.22" as="geometry" />
        </mxCell>
        <mxCell id="Xc8OwGy_YWXIGkOXyG72-104" value="31" style="text;html=1;strokeColor=none;fillColor=none;align=center;verticalAlign=middle;whiteSpace=wrap;rounded=0;strokeWidth=25;fontFamily=Economica;fontSource=https%3A%2F%2Ffonts.googleapis.com%2Fcss%3Ffamily%3DEconomica;fontSize=200;" parent="N9qgZzJZAJzPSqjrUuPE-3" vertex="1">
          <mxGeometry x="-0.045000000000186446" y="4094.495" width="236.22" height="236.22" as="geometry" />
        </mxCell>
        <mxCell id="Xc8OwGy_YWXIGkOXyG72-105" value="32" style="text;html=1;strokeColor=none;fillColor=none;align=center;verticalAlign=middle;whiteSpace=wrap;rounded=0;strokeWidth=25;fontFamily=Economica;fontSource=https%3A%2F%2Ffonts.googleapis.com%2Fcss%3Ffamily%3DEconomica;fontSize=200;" parent="N9qgZzJZAJzPSqjrUuPE-3" vertex="1">
          <mxGeometry x="393.6599999999994" y="4094.49" width="236.22" height="236.22" as="geometry" />
        </mxCell>
        <mxCell id="Xc8OwGy_YWXIGkOXyG72-106" value="30" style="text;html=1;strokeColor=none;fillColor=none;align=center;verticalAlign=middle;whiteSpace=wrap;rounded=0;strokeWidth=25;fontFamily=Economica;fontSource=https%3A%2F%2Ffonts.googleapis.com%2Fcss%3Ffamily%3DEconomica;fontSize=200;" parent="N9qgZzJZAJzPSqjrUuPE-3" vertex="1">
          <mxGeometry x="393.6549999999995" y="3777.685" width="236.22" height="236.22" as="geometry" />
        </mxCell>
        <mxCell id="Xc8OwGy_YWXIGkOXyG72-107" value="29" style="text;html=1;strokeColor=none;fillColor=none;align=center;verticalAlign=middle;whiteSpace=wrap;rounded=0;strokeWidth=25;fontFamily=Economica;fontSource=https%3A%2F%2Ffonts.googleapis.com%2Fcss%3Ffamily%3DEconomica;fontSize=200;" parent="N9qgZzJZAJzPSqjrUuPE-3" vertex="1">
          <mxGeometry x="-0.0500000000001819" y="3777.69" width="236.22" height="236.22" as="geometry" />
        </mxCell>
        <mxCell id="Xc8OwGy_YWXIGkOXyG72-108" value="35" style="text;html=1;strokeColor=none;fillColor=none;align=center;verticalAlign=middle;whiteSpace=wrap;rounded=0;strokeWidth=25;fontFamily=Economica;fontSource=https%3A%2F%2Ffonts.googleapis.com%2Fcss%3Ffamily%3DEconomica;fontSize=200;" parent="N9qgZzJZAJzPSqjrUuPE-3" vertex="1">
          <mxGeometry x="-0.06500000000028194" y="4726.245" width="236.22" height="236.22" as="geometry" />
        </mxCell>
        <mxCell id="Xc8OwGy_YWXIGkOXyG72-109" value="36" style="text;html=1;strokeColor=none;fillColor=none;align=center;verticalAlign=middle;whiteSpace=wrap;rounded=0;strokeWidth=25;fontFamily=Economica;fontSource=https%3A%2F%2Ffonts.googleapis.com%2Fcss%3Ffamily%3DEconomica;fontSize=200;" parent="N9qgZzJZAJzPSqjrUuPE-3" vertex="1">
          <mxGeometry x="393.6399999999994" y="4726.24" width="236.22" height="236.22" as="geometry" />
        </mxCell>
        <mxCell id="Xc8OwGy_YWXIGkOXyG72-110" value="34" style="text;html=1;strokeColor=none;fillColor=none;align=center;verticalAlign=middle;whiteSpace=wrap;rounded=0;strokeWidth=25;fontFamily=Economica;fontSource=https%3A%2F%2Ffonts.googleapis.com%2Fcss%3Ffamily%3DEconomica;fontSize=200;" parent="N9qgZzJZAJzPSqjrUuPE-3" vertex="1">
          <mxGeometry x="393.63499999999954" y="4409.4349999999995" width="236.22" height="236.22" as="geometry" />
        </mxCell>
        <mxCell id="Xc8OwGy_YWXIGkOXyG72-111" value="33" style="text;html=1;strokeColor=none;fillColor=none;align=center;verticalAlign=middle;whiteSpace=wrap;rounded=0;strokeWidth=25;fontFamily=Economica;fontSource=https%3A%2F%2Ffonts.googleapis.com%2Fcss%3Ffamily%3DEconomica;fontSize=200;" parent="N9qgZzJZAJzPSqjrUuPE-3" vertex="1">
          <mxGeometry x="-0.0700000000002774" y="4409.44" width="236.22" height="236.22" as="geometry" />
        </mxCell>
        <mxCell id="Xc8OwGy_YWXIGkOXyG72-112" value="39" style="text;html=1;strokeColor=none;fillColor=none;align=center;verticalAlign=middle;whiteSpace=wrap;rounded=0;strokeWidth=25;fontFamily=Economica;fontSource=https%3A%2F%2Ffonts.googleapis.com%2Fcss%3Ffamily%3DEconomica;fontSize=200;" parent="N9qgZzJZAJzPSqjrUuPE-3" vertex="1">
          <mxGeometry x="-0.06000000000028649" y="5354.320000000001" width="236.22" height="236.22" as="geometry" />
        </mxCell>
        <mxCell id="Xc8OwGy_YWXIGkOXyG72-113" value="40" style="text;html=1;strokeColor=none;fillColor=none;align=center;verticalAlign=middle;whiteSpace=wrap;rounded=0;strokeWidth=25;fontFamily=Economica;fontSource=https%3A%2F%2Ffonts.googleapis.com%2Fcss%3Ffamily%3DEconomica;fontSize=200;" parent="N9qgZzJZAJzPSqjrUuPE-3" vertex="1">
          <mxGeometry x="393.6449999999993" y="5354.3150000000005" width="236.22" height="236.22" as="geometry" />
        </mxCell>
        <mxCell id="Xc8OwGy_YWXIGkOXyG72-114" value="38" style="text;html=1;strokeColor=none;fillColor=none;align=center;verticalAlign=middle;whiteSpace=wrap;rounded=0;strokeWidth=25;fontFamily=Economica;fontSource=https%3A%2F%2Ffonts.googleapis.com%2Fcss%3Ffamily%3DEconomica;fontSize=200;" parent="N9qgZzJZAJzPSqjrUuPE-3" vertex="1">
          <mxGeometry x="393.6399999999994" y="5037.51" width="236.22" height="236.22" as="geometry" />
        </mxCell>
        <mxCell id="Xc8OwGy_YWXIGkOXyG72-115" value="37" style="text;html=1;strokeColor=none;fillColor=none;align=center;verticalAlign=middle;whiteSpace=wrap;rounded=0;strokeWidth=25;fontFamily=Economica;fontSource=https%3A%2F%2Ffonts.googleapis.com%2Fcss%3Ffamily%3DEconomica;fontSize=200;" parent="N9qgZzJZAJzPSqjrUuPE-3" vertex="1">
          <mxGeometry x="-0.06500000000028194" y="5037.515" width="236.22" height="236.22" as="geometry" />
        </mxCell>
        <mxCell id="N9qgZzJZAJzPSqjrUuPE-5" value="labels" parent="0" />
        <mxCell id="Xc8OwGy_YWXIGkOXyG72-240" value="GPIO 2 (SDA)" style="text;html=1;strokeColor=none;fillColor=none;align=right;verticalAlign=middle;whiteSpace=wrap;rounded=0;strokeWidth=25;fontFamily=Economica;fontSource=https%3A%2F%2Ffonts.googleapis.com%2Fcss%3Ffamily%3DEconomica;fontSize=200;" parent="N9qgZzJZAJzPSqjrUuPE-5" vertex="1">
          <mxGeometry x="-1574.8" y="-334.64" width="1417.32" height="275.58" as="geometry" />
        </mxCell>
        <mxCell id="N9qgZzJZAJzPSqjrUuPE-50" value="GPIO 3 (SCL)" style="text;html=1;strokeColor=none;fillColor=none;align=right;verticalAlign=middle;whiteSpace=wrap;rounded=0;strokeWidth=25;fontFamily=Economica;fontSource=https%3A%2F%2Ffonts.googleapis.com%2Fcss%3Ffamily%3DEconomica;fontSize=200;" vertex="1" parent="N9qgZzJZAJzPSqjrUuPE-5">
          <mxGeometry x="-1574.8000000000002" y="-19.68" width="1417.32" height="275.58" as="geometry" />
        </mxCell>
        <mxCell id="N9qgZzJZAJzPSqjrUuPE-60" value="GPIO 4 (GPCLK0)" style="text;html=1;strokeColor=none;fillColor=none;align=right;verticalAlign=middle;whiteSpace=wrap;rounded=0;strokeWidth=25;fontFamily=Economica;fontSource=https%3A%2F%2Ffonts.googleapis.com%2Fcss%3Ffamily%3DEconomica;fontSize=200;" vertex="1" parent="N9qgZzJZAJzPSqjrUuPE-5">
          <mxGeometry x="-1574.8049999999998" y="295.275" width="1417.32" height="275.59" as="geometry" />
        </mxCell>
        <mxCell id="N9qgZzJZAJzPSqjrUuPE-61" value="GND" style="text;html=1;strokeColor=none;fillColor=none;align=right;verticalAlign=middle;whiteSpace=wrap;rounded=0;strokeWidth=25;fontFamily=Economica;fontSource=https%3A%2F%2Ffonts.googleapis.com%2Fcss%3Ffamily%3DEconomica;fontSize=200;" vertex="1" parent="N9qgZzJZAJzPSqjrUuPE-5">
          <mxGeometry x="-1574.8049999999998" y="610.2350000000001" width="1417.32" height="275.58" as="geometry" />
        </mxCell>
        <mxCell id="N9qgZzJZAJzPSqjrUuPE-62" value="GPIO 17" style="text;html=1;strokeColor=none;fillColor=none;align=right;verticalAlign=middle;whiteSpace=wrap;rounded=0;strokeWidth=25;fontFamily=Economica;fontSource=https%3A%2F%2Ffonts.googleapis.com%2Fcss%3Ffamily%3DEconomica;fontSize=200;" vertex="1" parent="N9qgZzJZAJzPSqjrUuPE-5">
          <mxGeometry x="-1574.805" y="925.195" width="1417.32" height="275.58" as="geometry" />
        </mxCell>
        <mxCell id="N9qgZzJZAJzPSqjrUuPE-69" value="GPIO 27" style="text;html=1;strokeColor=none;fillColor=none;align=right;verticalAlign=middle;whiteSpace=wrap;rounded=0;strokeWidth=25;fontFamily=Economica;fontSource=https%3A%2F%2Ffonts.googleapis.com%2Fcss%3Ffamily%3DEconomica;fontSize=200;" vertex="1" parent="N9qgZzJZAJzPSqjrUuPE-5">
          <mxGeometry x="-1574.8049999999998" y="1240.1549999999997" width="1417.32" height="275.59" as="geometry" />
        </mxCell>
        <mxCell id="N9qgZzJZAJzPSqjrUuPE-70" value="GPIO 22" style="text;html=1;strokeColor=none;fillColor=none;align=right;verticalAlign=middle;whiteSpace=wrap;rounded=0;strokeWidth=25;fontFamily=Economica;fontSource=https%3A%2F%2Ffonts.googleapis.com%2Fcss%3Ffamily%3DEconomica;fontSize=200;" vertex="1" parent="N9qgZzJZAJzPSqjrUuPE-5">
          <mxGeometry x="-1574.8049999999998" y="1555.115" width="1417.32" height="275.58" as="geometry" />
        </mxCell>
        <mxCell id="N9qgZzJZAJzPSqjrUuPE-71" value="3.3v" style="text;html=1;strokeColor=none;fillColor=none;align=right;verticalAlign=middle;whiteSpace=wrap;rounded=0;strokeWidth=25;fontFamily=Economica;fontSource=https%3A%2F%2Ffonts.googleapis.com%2Fcss%3Ffamily%3DEconomica;fontSize=200;" vertex="1" parent="N9qgZzJZAJzPSqjrUuPE-5">
          <mxGeometry x="-1574.805" y="1870.075" width="1417.32" height="275.58" as="geometry" />
        </mxCell>
        <mxCell id="N9qgZzJZAJzPSqjrUuPE-72" value="GPIO 10 (MOSI)" style="text;html=1;strokeColor=none;fillColor=none;align=right;verticalAlign=middle;whiteSpace=wrap;rounded=0;strokeWidth=25;fontFamily=Economica;fontSource=https%3A%2F%2Ffonts.googleapis.com%2Fcss%3Ffamily%3DEconomica;fontSize=200;" vertex="1" parent="N9qgZzJZAJzPSqjrUuPE-5">
          <mxGeometry x="-1574.8099999999997" y="2185.0299999999997" width="1417.32" height="275.59" as="geometry" />
        </mxCell>
        <mxCell id="N9qgZzJZAJzPSqjrUuPE-73" value="GPIO 9 (MISO)" style="text;html=1;strokeColor=none;fillColor=none;align=right;verticalAlign=middle;whiteSpace=wrap;rounded=0;strokeWidth=25;fontFamily=Economica;fontSource=https%3A%2F%2Ffonts.googleapis.com%2Fcss%3Ffamily%3DEconomica;fontSize=200;" vertex="1" parent="N9qgZzJZAJzPSqjrUuPE-5">
          <mxGeometry x="-1574.8099999999997" y="2499.99" width="1417.32" height="275.58" as="geometry" />
        </mxCell>
        <mxCell id="N9qgZzJZAJzPSqjrUuPE-74" value="GPIO 11 (SCLK)" style="text;html=1;strokeColor=none;fillColor=none;align=right;verticalAlign=middle;whiteSpace=wrap;rounded=0;strokeWidth=25;fontFamily=Economica;fontSource=https%3A%2F%2Ffonts.googleapis.com%2Fcss%3Ffamily%3DEconomica;fontSize=200;" vertex="1" parent="N9qgZzJZAJzPSqjrUuPE-5">
          <mxGeometry x="-1574.81" y="2814.95" width="1417.32" height="275.58" as="geometry" />
        </mxCell>
        <mxCell id="N9qgZzJZAJzPSqjrUuPE-75" value="GND" style="text;html=1;strokeColor=none;fillColor=none;align=right;verticalAlign=middle;whiteSpace=wrap;rounded=0;strokeWidth=25;fontFamily=Economica;fontSource=https%3A%2F%2Ffonts.googleapis.com%2Fcss%3Ffamily%3DEconomica;fontSize=200;" vertex="1" parent="N9qgZzJZAJzPSqjrUuPE-5">
          <mxGeometry x="-1574.785" y="3129.915" width="1417.32" height="275.59" as="geometry" />
        </mxCell>
        <mxCell id="N9qgZzJZAJzPSqjrUuPE-76" value="GPIO 0 (ID_SD)" style="text;html=1;strokeColor=none;fillColor=none;align=right;verticalAlign=middle;whiteSpace=wrap;rounded=0;strokeWidth=25;fontFamily=Economica;fontSource=https%3A%2F%2Ffonts.googleapis.com%2Fcss%3Ffamily%3DEconomica;fontSize=200;" vertex="1" parent="N9qgZzJZAJzPSqjrUuPE-5">
          <mxGeometry x="-1574.785" y="3444.875" width="1417.32" height="275.58" as="geometry" />
        </mxCell>
        <mxCell id="N9qgZzJZAJzPSqjrUuPE-77" value="GPIO 5" style="text;html=1;strokeColor=none;fillColor=none;align=right;verticalAlign=middle;whiteSpace=wrap;rounded=0;strokeWidth=25;fontFamily=Economica;fontSource=https%3A%2F%2Ffonts.googleapis.com%2Fcss%3Ffamily%3DEconomica;fontSize=200;" vertex="1" parent="N9qgZzJZAJzPSqjrUuPE-5">
          <mxGeometry x="-1574.7850000000003" y="3759.835" width="1417.32" height="275.58" as="geometry" />
        </mxCell>
        <mxCell id="N9qgZzJZAJzPSqjrUuPE-78" value="GPIO 6" style="text;html=1;strokeColor=none;fillColor=none;align=right;verticalAlign=middle;whiteSpace=wrap;rounded=0;strokeWidth=25;fontFamily=Economica;fontSource=https%3A%2F%2Ffonts.googleapis.com%2Fcss%3Ffamily%3DEconomica;fontSize=200;" vertex="1" parent="N9qgZzJZAJzPSqjrUuPE-5">
          <mxGeometry x="-1574.79" y="4074.79" width="1417.32" height="275.59" as="geometry" />
        </mxCell>
        <mxCell id="N9qgZzJZAJzPSqjrUuPE-79" value="GPIO 13 (PWM1)" style="text;html=1;strokeColor=none;fillColor=none;align=right;verticalAlign=middle;whiteSpace=wrap;rounded=0;strokeWidth=25;fontFamily=Economica;fontSource=https%3A%2F%2Ffonts.googleapis.com%2Fcss%3Ffamily%3DEconomica;fontSize=200;" vertex="1" parent="N9qgZzJZAJzPSqjrUuPE-5">
          <mxGeometry x="-1574.79" y="4389.75" width="1417.32" height="275.58" as="geometry" />
        </mxCell>
        <mxCell id="N9qgZzJZAJzPSqjrUuPE-80" value="GPIO 19 (PCM_FS)" style="text;html=1;strokeColor=none;fillColor=none;align=right;verticalAlign=middle;whiteSpace=wrap;rounded=0;strokeWidth=25;fontFamily=Economica;fontSource=https%3A%2F%2Ffonts.googleapis.com%2Fcss%3Ffamily%3DEconomica;fontSize=200;" vertex="1" parent="N9qgZzJZAJzPSqjrUuPE-5">
          <mxGeometry x="-1574.7900000000002" y="4704.71" width="1417.32" height="275.58" as="geometry" />
        </mxCell>
        <mxCell id="N9qgZzJZAJzPSqjrUuPE-81" value="GPIO 26" style="text;html=1;strokeColor=none;fillColor=none;align=right;verticalAlign=middle;whiteSpace=wrap;rounded=0;strokeWidth=25;fontFamily=Economica;fontSource=https%3A%2F%2Ffonts.googleapis.com%2Fcss%3Ffamily%3DEconomica;fontSize=200;" vertex="1" parent="N9qgZzJZAJzPSqjrUuPE-5">
          <mxGeometry x="-1574.79" y="5019.67" width="1417.32" height="275.59" as="geometry" />
        </mxCell>
        <mxCell id="N9qgZzJZAJzPSqjrUuPE-82" value="GND" style="text;html=1;strokeColor=none;fillColor=none;align=right;verticalAlign=middle;whiteSpace=wrap;rounded=0;strokeWidth=25;fontFamily=Economica;fontSource=https%3A%2F%2Ffonts.googleapis.com%2Fcss%3Ffamily%3DEconomica;fontSize=200;" vertex="1" parent="N9qgZzJZAJzPSqjrUuPE-5">
          <mxGeometry x="-1574.79" y="5334.63" width="1417.32" height="275.58" as="geometry" />
        </mxCell>
        <mxCell id="N9qgZzJZAJzPSqjrUuPE-87" value="5v" style="text;html=1;strokeColor=none;fillColor=none;align=left;verticalAlign=middle;whiteSpace=wrap;rounded=0;strokeWidth=25;fontFamily=Economica;fontSource=https%3A%2F%2Ffonts.googleapis.com%2Fcss%3Ffamily%3DEconomica;fontSize=200;" vertex="1" parent="N9qgZzJZAJzPSqjrUuPE-5">
          <mxGeometry x="787.4049999999999" y="-649.595" width="1417.32" height="275.59" as="geometry" />
        </mxCell>
        <mxCell id="N9qgZzJZAJzPSqjrUuPE-88" value="5v" style="text;html=1;strokeColor=none;fillColor=none;align=left;verticalAlign=middle;whiteSpace=wrap;rounded=0;strokeWidth=25;fontFamily=Economica;fontSource=https%3A%2F%2Ffonts.googleapis.com%2Fcss%3Ffamily%3DEconomica;fontSize=200;" vertex="1" parent="N9qgZzJZAJzPSqjrUuPE-5">
          <mxGeometry x="787.4049999999999" y="-334.63500000000005" width="1417.32" height="275.58" as="geometry" />
        </mxCell>
        <mxCell id="N9qgZzJZAJzPSqjrUuPE-89" value="GND" style="text;html=1;strokeColor=none;fillColor=none;align=left;verticalAlign=middle;whiteSpace=wrap;rounded=0;strokeWidth=25;fontFamily=Economica;fontSource=https%3A%2F%2Ffonts.googleapis.com%2Fcss%3Ffamily%3DEconomica;fontSize=200;" vertex="1" parent="N9qgZzJZAJzPSqjrUuPE-5">
          <mxGeometry x="787.4049999999994" y="-19.675000000000004" width="1417.32" height="275.58" as="geometry" />
        </mxCell>
        <mxCell id="N9qgZzJZAJzPSqjrUuPE-90" value="GPIO 14" style="text;html=1;strokeColor=none;fillColor=none;align=left;verticalAlign=middle;whiteSpace=wrap;rounded=0;strokeWidth=25;fontFamily=Economica;fontSource=https%3A%2F%2Ffonts.googleapis.com%2Fcss%3Ffamily%3DEconomica;fontSize=200;" vertex="1" parent="N9qgZzJZAJzPSqjrUuPE-5">
          <mxGeometry x="787.3999999999997" y="295.28" width="1417.32" height="275.59" as="geometry" />
        </mxCell>
        <mxCell id="N9qgZzJZAJzPSqjrUuPE-91" value="GPIO 15" style="text;html=1;strokeColor=none;fillColor=none;align=left;verticalAlign=middle;whiteSpace=wrap;rounded=0;strokeWidth=25;fontFamily=Economica;fontSource=https%3A%2F%2Ffonts.googleapis.com%2Fcss%3Ffamily%3DEconomica;fontSize=200;" vertex="1" parent="N9qgZzJZAJzPSqjrUuPE-5">
          <mxGeometry x="787.3999999999997" y="610.2400000000001" width="1417.32" height="275.58" as="geometry" />
        </mxCell>
        <mxCell id="N9qgZzJZAJzPSqjrUuPE-92" value="GPIO 18" style="text;html=1;strokeColor=none;fillColor=none;align=left;verticalAlign=middle;whiteSpace=wrap;rounded=0;strokeWidth=25;fontFamily=Economica;fontSource=https%3A%2F%2Ffonts.googleapis.com%2Fcss%3Ffamily%3DEconomica;fontSize=200;" vertex="1" parent="N9qgZzJZAJzPSqjrUuPE-5">
          <mxGeometry x="787.3999999999997" y="925.2" width="1417.32" height="275.58" as="geometry" />
        </mxCell>
        <mxCell id="N9qgZzJZAJzPSqjrUuPE-93" value="GND" style="text;html=1;strokeColor=none;fillColor=none;align=left;verticalAlign=middle;whiteSpace=wrap;rounded=0;strokeWidth=25;fontFamily=Economica;fontSource=https%3A%2F%2Ffonts.googleapis.com%2Fcss%3Ffamily%3DEconomica;fontSize=200;" vertex="1" parent="N9qgZzJZAJzPSqjrUuPE-5">
          <mxGeometry x="787.3999999999997" y="1240.1599999999996" width="1417.32" height="275.59" as="geometry" />
        </mxCell>
        <mxCell id="N9qgZzJZAJzPSqjrUuPE-94" value="GPIO 23" style="text;html=1;strokeColor=none;fillColor=none;align=left;verticalAlign=middle;whiteSpace=wrap;rounded=0;strokeWidth=25;fontFamily=Economica;fontSource=https%3A%2F%2Ffonts.googleapis.com%2Fcss%3Ffamily%3DEconomica;fontSize=200;" vertex="1" parent="N9qgZzJZAJzPSqjrUuPE-5">
          <mxGeometry x="787.3999999999997" y="1555.12" width="1417.32" height="275.58" as="geometry" />
        </mxCell>
        <mxCell id="N9qgZzJZAJzPSqjrUuPE-95" value="GPIO 24" style="text;html=1;strokeColor=none;fillColor=none;align=left;verticalAlign=middle;whiteSpace=wrap;rounded=0;strokeWidth=25;fontFamily=Economica;fontSource=https%3A%2F%2Ffonts.googleapis.com%2Fcss%3Ffamily%3DEconomica;fontSize=200;" vertex="1" parent="N9qgZzJZAJzPSqjrUuPE-5">
          <mxGeometry x="787.3999999999997" y="1870.08" width="1417.32" height="275.58" as="geometry" />
        </mxCell>
        <mxCell id="N9qgZzJZAJzPSqjrUuPE-96" value="GND" style="text;html=1;strokeColor=none;fillColor=none;align=left;verticalAlign=middle;whiteSpace=wrap;rounded=0;strokeWidth=25;fontFamily=Economica;fontSource=https%3A%2F%2Ffonts.googleapis.com%2Fcss%3Ffamily%3DEconomica;fontSize=200;" vertex="1" parent="N9qgZzJZAJzPSqjrUuPE-5">
          <mxGeometry x="787.3949999999996" y="2185.035" width="1417.32" height="275.59" as="geometry" />
        </mxCell>
        <mxCell id="N9qgZzJZAJzPSqjrUuPE-97" value="GPIO 25" style="text;html=1;strokeColor=none;fillColor=none;align=left;verticalAlign=middle;whiteSpace=wrap;rounded=0;strokeWidth=25;fontFamily=Economica;fontSource=https%3A%2F%2Ffonts.googleapis.com%2Fcss%3Ffamily%3DEconomica;fontSize=200;" vertex="1" parent="N9qgZzJZAJzPSqjrUuPE-5">
          <mxGeometry x="787.3949999999996" y="2499.995" width="1417.32" height="275.58" as="geometry" />
        </mxCell>
        <mxCell id="N9qgZzJZAJzPSqjrUuPE-98" value="GPIO 8 (CE0)" style="text;html=1;strokeColor=none;fillColor=none;align=left;verticalAlign=middle;whiteSpace=wrap;rounded=0;strokeWidth=25;fontFamily=Economica;fontSource=https%3A%2F%2Ffonts.googleapis.com%2Fcss%3Ffamily%3DEconomica;fontSize=200;" vertex="1" parent="N9qgZzJZAJzPSqjrUuPE-5">
          <mxGeometry x="787.3949999999996" y="2814.955" width="1417.32" height="275.58" as="geometry" />
        </mxCell>
        <mxCell id="N9qgZzJZAJzPSqjrUuPE-99" value="GPIO 7 (CE1)" style="text;html=1;strokeColor=none;fillColor=none;align=left;verticalAlign=middle;whiteSpace=wrap;rounded=0;strokeWidth=25;fontFamily=Economica;fontSource=https%3A%2F%2Ffonts.googleapis.com%2Fcss%3Ffamily%3DEconomica;fontSize=200;" vertex="1" parent="N9qgZzJZAJzPSqjrUuPE-5">
          <mxGeometry x="787.4199999999993" y="3129.92" width="1417.32" height="275.59" as="geometry" />
        </mxCell>
        <mxCell id="N9qgZzJZAJzPSqjrUuPE-100" value="GPIO 1 (ID_SC)" style="text;html=1;strokeColor=none;fillColor=none;align=left;verticalAlign=middle;whiteSpace=wrap;rounded=0;strokeWidth=25;fontFamily=Economica;fontSource=https%3A%2F%2Ffonts.googleapis.com%2Fcss%3Ffamily%3DEconomica;fontSize=200;" vertex="1" parent="N9qgZzJZAJzPSqjrUuPE-5">
          <mxGeometry x="787.4199999999993" y="3444.88" width="1417.32" height="275.58" as="geometry" />
        </mxCell>
        <mxCell id="N9qgZzJZAJzPSqjrUuPE-101" value="GND" style="text;html=1;strokeColor=none;fillColor=none;align=left;verticalAlign=middle;whiteSpace=wrap;rounded=0;strokeWidth=25;fontFamily=Economica;fontSource=https%3A%2F%2Ffonts.googleapis.com%2Fcss%3Ffamily%3DEconomica;fontSize=200;" vertex="1" parent="N9qgZzJZAJzPSqjrUuPE-5">
          <mxGeometry x="787.4199999999993" y="3759.84" width="1417.32" height="275.58" as="geometry" />
        </mxCell>
        <mxCell id="N9qgZzJZAJzPSqjrUuPE-102" value="GPIO 12" style="text;html=1;strokeColor=none;fillColor=none;align=left;verticalAlign=middle;whiteSpace=wrap;rounded=0;strokeWidth=25;fontFamily=Economica;fontSource=https%3A%2F%2Ffonts.googleapis.com%2Fcss%3Ffamily%3DEconomica;fontSize=200;" vertex="1" parent="N9qgZzJZAJzPSqjrUuPE-5">
          <mxGeometry x="787.4149999999996" y="4074.795" width="1417.32" height="275.59" as="geometry" />
        </mxCell>
        <mxCell id="N9qgZzJZAJzPSqjrUuPE-103" value="GND" style="text;html=1;strokeColor=none;fillColor=none;align=left;verticalAlign=middle;whiteSpace=wrap;rounded=0;strokeWidth=25;fontFamily=Economica;fontSource=https%3A%2F%2Ffonts.googleapis.com%2Fcss%3Ffamily%3DEconomica;fontSize=200;" vertex="1" parent="N9qgZzJZAJzPSqjrUuPE-5">
          <mxGeometry x="787.4149999999996" y="4389.755" width="1417.32" height="275.58" as="geometry" />
        </mxCell>
        <mxCell id="N9qgZzJZAJzPSqjrUuPE-104" value="GPIO 16" style="text;html=1;strokeColor=none;fillColor=none;align=left;verticalAlign=middle;whiteSpace=wrap;rounded=0;strokeWidth=25;fontFamily=Economica;fontSource=https%3A%2F%2Ffonts.googleapis.com%2Fcss%3Ffamily%3DEconomica;fontSize=200;" vertex="1" parent="N9qgZzJZAJzPSqjrUuPE-5">
          <mxGeometry x="787.4149999999992" y="4704.715" width="1417.32" height="275.58" as="geometry" />
        </mxCell>
        <mxCell id="N9qgZzJZAJzPSqjrUuPE-105" value="GPIO 20 (PCM_DIN)" style="text;html=1;strokeColor=none;fillColor=none;align=left;verticalAlign=middle;whiteSpace=wrap;rounded=0;strokeWidth=25;fontFamily=Economica;fontSource=https%3A%2F%2Ffonts.googleapis.com%2Fcss%3Ffamily%3DEconomica;fontSize=200;" vertex="1" parent="N9qgZzJZAJzPSqjrUuPE-5">
          <mxGeometry x="787.4149999999996" y="5019.675" width="1417.32" height="275.59" as="geometry" />
        </mxCell>
        <mxCell id="N9qgZzJZAJzPSqjrUuPE-106" value="GPIO 21 (PCM_DOT)" style="text;html=1;strokeColor=none;fillColor=none;align=left;verticalAlign=middle;whiteSpace=wrap;rounded=0;strokeWidth=25;fontFamily=Economica;fontSource=https%3A%2F%2Ffonts.googleapis.com%2Fcss%3Ffamily%3DEconomica;fontSize=200;" vertex="1" parent="N9qgZzJZAJzPSqjrUuPE-5">
          <mxGeometry x="787.4149999999996" y="5334.635" width="1417.32" height="275.58" as="geometry" />
        </mxCell>
        <mxCell id="N9qgZzJZAJzPSqjrUuPE-49" value="3.3v" style="text;html=1;strokeColor=none;fillColor=none;align=right;verticalAlign=middle;whiteSpace=wrap;rounded=0;strokeWidth=25;fontFamily=Economica;fontSource=https%3A%2F%2Ffonts.googleapis.com%2Fcss%3Ffamily%3DEconomica;fontSize=200;" vertex="1" parent="N9qgZzJZAJzPSqjrUuPE-5">
          <mxGeometry x="-1574.8" y="-649.6" width="1417.32" height="275.59" as="geometry" />
        </mxCell>
      </root>
    </mxGraphModel>
  </diagram>
  <diagram id="bqNRhVfNEkaFOIj1BIx0" name="backup">
    <mxGraphModel dx="14523" dy="6428" grid="1" gridSize="10" guides="1" tooltips="1" connect="1" arrows="1" fold="1" page="1" pageScale="1" pageWidth="827" pageHeight="1169" math="0" shadow="0">
      <root>
        <mxCell id="0" />
        <mxCell id="1" parent="0" />
        <mxCell id="Va36JWpo5vlnhU0wUGYR-1" value="" style="rounded=0;whiteSpace=wrap;html=1;strokeWidth=25;" vertex="1" parent="1">
          <mxGeometry x="-7106.285" y="-1712.595" width="787.4" height="6377.94" as="geometry" />
        </mxCell>
        <mxCell id="Va36JWpo5vlnhU0wUGYR-2" value="" style="ellipse;whiteSpace=wrap;html=1;aspect=fixed;strokeWidth=25;fillColor=#f5f5f5;strokeColor=#666666;fontColor=#333333;" vertex="1" parent="1">
          <mxGeometry x="-7027.544999999999" y="-1633.855" width="236.22" height="236.22" as="geometry" />
        </mxCell>
        <mxCell id="Va36JWpo5vlnhU0wUGYR-3" value="" style="ellipse;whiteSpace=wrap;html=1;aspect=fixed;strokeWidth=25;fillColor=#f5f5f5;strokeColor=#666666;fontColor=#333333;" vertex="1" parent="1">
          <mxGeometry x="-6633.844999999999" y="-1633.855" width="236.22" height="236.22" as="geometry" />
        </mxCell>
        <mxCell id="Va36JWpo5vlnhU0wUGYR-4" value="" style="ellipse;whiteSpace=wrap;html=1;aspect=fixed;strokeWidth=25;fillColor=#f5f5f5;strokeColor=#666666;fontColor=#333333;" vertex="1" parent="1">
          <mxGeometry x="-7027.544999999999" y="-1318.895" width="236.22" height="236.22" as="geometry" />
        </mxCell>
        <mxCell id="Va36JWpo5vlnhU0wUGYR-5" value="" style="ellipse;whiteSpace=wrap;html=1;aspect=fixed;strokeWidth=25;fillColor=#f5f5f5;strokeColor=#666666;fontColor=#333333;" vertex="1" parent="1">
          <mxGeometry x="-6637.544999999999" y="-1318.895" width="239.92" height="239.92" as="geometry" />
        </mxCell>
        <mxCell id="Va36JWpo5vlnhU0wUGYR-6" value="" style="ellipse;whiteSpace=wrap;html=1;aspect=fixed;strokeWidth=25;fillColor=#f5f5f5;strokeColor=#666666;fontColor=#333333;" vertex="1" parent="1">
          <mxGeometry x="-7027.54" y="-1003.9300000000001" width="236.22" height="236.22" as="geometry" />
        </mxCell>
        <mxCell id="Va36JWpo5vlnhU0wUGYR-7" value="" style="ellipse;whiteSpace=wrap;html=1;aspect=fixed;strokeWidth=25;fillColor=#f5f5f5;strokeColor=#666666;fontColor=#333333;" vertex="1" parent="1">
          <mxGeometry x="-6633.839999999999" y="-1003.9300000000001" width="236.22" height="236.22" as="geometry" />
        </mxCell>
        <mxCell id="Va36JWpo5vlnhU0wUGYR-8" value="" style="ellipse;whiteSpace=wrap;html=1;aspect=fixed;strokeWidth=25;fillColor=#f5f5f5;strokeColor=#666666;fontColor=#333333;" vertex="1" parent="1">
          <mxGeometry x="-7027.54" y="-688.97" width="236.22" height="236.22" as="geometry" />
        </mxCell>
        <mxCell id="Va36JWpo5vlnhU0wUGYR-9" value="" style="ellipse;whiteSpace=wrap;html=1;aspect=fixed;strokeWidth=25;fillColor=#f5f5f5;strokeColor=#666666;fontColor=#333333;" vertex="1" parent="1">
          <mxGeometry x="-6637.54" y="-688.97" width="239.92" height="239.92" as="geometry" />
        </mxCell>
        <mxCell id="Va36JWpo5vlnhU0wUGYR-10" value="" style="ellipse;whiteSpace=wrap;html=1;aspect=fixed;strokeWidth=25;fillColor=#f5f5f5;strokeColor=#666666;fontColor=#333333;" vertex="1" parent="1">
          <mxGeometry x="-7027.549999999999" y="-374.01" width="236.22" height="236.22" as="geometry" />
        </mxCell>
        <mxCell id="Va36JWpo5vlnhU0wUGYR-11" value="" style="ellipse;whiteSpace=wrap;html=1;aspect=fixed;strokeWidth=25;fillColor=#f5f5f5;strokeColor=#666666;fontColor=#333333;" vertex="1" parent="1">
          <mxGeometry x="-6633.849999999999" y="-374.01" width="236.22" height="236.22" as="geometry" />
        </mxCell>
        <mxCell id="Va36JWpo5vlnhU0wUGYR-12" value="" style="ellipse;whiteSpace=wrap;html=1;aspect=fixed;strokeWidth=25;fillColor=#f5f5f5;strokeColor=#666666;fontColor=#333333;" vertex="1" parent="1">
          <mxGeometry x="-7027.549999999999" y="-59.049999999999955" width="236.22" height="236.22" as="geometry" />
        </mxCell>
        <mxCell id="Va36JWpo5vlnhU0wUGYR-13" value="" style="ellipse;whiteSpace=wrap;html=1;aspect=fixed;strokeWidth=25;fillColor=#f5f5f5;strokeColor=#666666;fontColor=#333333;" vertex="1" parent="1">
          <mxGeometry x="-6637.549999999999" y="-59.049999999999955" width="239.92" height="239.92" as="geometry" />
        </mxCell>
        <mxCell id="Va36JWpo5vlnhU0wUGYR-14" value="" style="ellipse;whiteSpace=wrap;html=1;aspect=fixed;strokeWidth=25;fillColor=#f5f5f5;strokeColor=#666666;fontColor=#333333;" vertex="1" parent="1">
          <mxGeometry x="-7027.544999999999" y="255.91500000000008" width="236.22" height="236.22" as="geometry" />
        </mxCell>
        <mxCell id="Va36JWpo5vlnhU0wUGYR-15" value="" style="ellipse;whiteSpace=wrap;html=1;aspect=fixed;strokeWidth=25;fillColor=#f5f5f5;strokeColor=#666666;fontColor=#333333;" vertex="1" parent="1">
          <mxGeometry x="-6633.844999999999" y="255.91500000000008" width="236.22" height="236.22" as="geometry" />
        </mxCell>
        <mxCell id="Va36JWpo5vlnhU0wUGYR-16" value="" style="ellipse;whiteSpace=wrap;html=1;aspect=fixed;strokeWidth=25;fillColor=#f5f5f5;strokeColor=#666666;fontColor=#333333;" vertex="1" parent="1">
          <mxGeometry x="-7027.544999999999" y="570.8750000000001" width="236.22" height="236.22" as="geometry" />
        </mxCell>
        <mxCell id="Va36JWpo5vlnhU0wUGYR-17" value="" style="ellipse;whiteSpace=wrap;html=1;aspect=fixed;strokeWidth=25;fillColor=#f5f5f5;strokeColor=#666666;fontColor=#333333;" vertex="1" parent="1">
          <mxGeometry x="-6637.544999999999" y="570.8750000000001" width="239.92" height="239.92" as="geometry" />
        </mxCell>
        <mxCell id="Va36JWpo5vlnhU0wUGYR-18" value="" style="ellipse;whiteSpace=wrap;html=1;aspect=fixed;strokeWidth=25;fillColor=#f5f5f5;strokeColor=#666666;fontColor=#333333;" vertex="1" parent="1">
          <mxGeometry x="-7027.5599999999995" y="885.8299999999998" width="236.22" height="236.22" as="geometry" />
        </mxCell>
        <mxCell id="Va36JWpo5vlnhU0wUGYR-19" value="" style="ellipse;whiteSpace=wrap;html=1;aspect=fixed;strokeWidth=25;fillColor=#f5f5f5;strokeColor=#666666;fontColor=#333333;" vertex="1" parent="1">
          <mxGeometry x="-6633.86" y="885.8299999999998" width="236.22" height="236.22" as="geometry" />
        </mxCell>
        <mxCell id="Va36JWpo5vlnhU0wUGYR-20" value="" style="ellipse;whiteSpace=wrap;html=1;aspect=fixed;strokeWidth=25;fillColor=#f5f5f5;strokeColor=#666666;fontColor=#333333;" vertex="1" parent="1">
          <mxGeometry x="-7027.5599999999995" y="1200.79" width="236.22" height="236.22" as="geometry" />
        </mxCell>
        <mxCell id="Va36JWpo5vlnhU0wUGYR-21" value="" style="ellipse;whiteSpace=wrap;html=1;aspect=fixed;strokeWidth=25;fillColor=#f5f5f5;strokeColor=#666666;fontColor=#333333;" vertex="1" parent="1">
          <mxGeometry x="-6637.5599999999995" y="1200.79" width="239.92" height="239.92" as="geometry" />
        </mxCell>
        <mxCell id="Va36JWpo5vlnhU0wUGYR-22" value="" style="ellipse;whiteSpace=wrap;html=1;aspect=fixed;strokeWidth=25;fillColor=#f5f5f5;strokeColor=#666666;fontColor=#333333;" vertex="1" parent="1">
          <mxGeometry x="-7027.554999999999" y="1515.755" width="236.22" height="236.22" as="geometry" />
        </mxCell>
        <mxCell id="Va36JWpo5vlnhU0wUGYR-23" value="" style="ellipse;whiteSpace=wrap;html=1;aspect=fixed;strokeWidth=25;fillColor=#f5f5f5;strokeColor=#666666;fontColor=#333333;" vertex="1" parent="1">
          <mxGeometry x="-6633.855" y="1515.755" width="236.22" height="236.22" as="geometry" />
        </mxCell>
        <mxCell id="Va36JWpo5vlnhU0wUGYR-24" value="" style="ellipse;whiteSpace=wrap;html=1;aspect=fixed;strokeWidth=25;fillColor=#f5f5f5;strokeColor=#666666;fontColor=#333333;" vertex="1" parent="1">
          <mxGeometry x="-7027.554999999999" y="1830.7150000000001" width="236.22" height="236.22" as="geometry" />
        </mxCell>
        <mxCell id="Va36JWpo5vlnhU0wUGYR-25" value="" style="ellipse;whiteSpace=wrap;html=1;aspect=fixed;strokeWidth=25;fillColor=#f5f5f5;strokeColor=#666666;fontColor=#333333;" vertex="1" parent="1">
          <mxGeometry x="-6637.554999999999" y="1830.7150000000001" width="239.92" height="239.92" as="geometry" />
        </mxCell>
        <mxCell id="Va36JWpo5vlnhU0wUGYR-26" value="" style="ellipse;whiteSpace=wrap;html=1;aspect=fixed;strokeWidth=25;fillColor=#f5f5f5;strokeColor=#666666;fontColor=#333333;" vertex="1" parent="1">
          <mxGeometry x="-7027.565" y="2145.675" width="236.22" height="236.22" as="geometry" />
        </mxCell>
        <mxCell id="Va36JWpo5vlnhU0wUGYR-27" value="" style="ellipse;whiteSpace=wrap;html=1;aspect=fixed;strokeWidth=25;fillColor=#f5f5f5;strokeColor=#666666;fontColor=#333333;" vertex="1" parent="1">
          <mxGeometry x="-6633.865" y="2145.675" width="236.22" height="236.22" as="geometry" />
        </mxCell>
        <mxCell id="Va36JWpo5vlnhU0wUGYR-28" value="" style="ellipse;whiteSpace=wrap;html=1;aspect=fixed;strokeWidth=25;fillColor=#f5f5f5;strokeColor=#666666;fontColor=#333333;" vertex="1" parent="1">
          <mxGeometry x="-7027.565" y="2460.635" width="236.22" height="236.22" as="geometry" />
        </mxCell>
        <mxCell id="Va36JWpo5vlnhU0wUGYR-29" value="" style="ellipse;whiteSpace=wrap;html=1;aspect=fixed;strokeWidth=25;fillColor=#f5f5f5;strokeColor=#666666;fontColor=#333333;" vertex="1" parent="1">
          <mxGeometry x="-6637.565" y="2460.635" width="239.92" height="239.92" as="geometry" />
        </mxCell>
        <mxCell id="Va36JWpo5vlnhU0wUGYR-30" value="" style="ellipse;whiteSpace=wrap;html=1;aspect=fixed;strokeWidth=25;fillColor=#f5f5f5;strokeColor=#666666;fontColor=#333333;" vertex="1" parent="1">
          <mxGeometry x="-7027.5599999999995" y="2775.6" width="236.22" height="236.22" as="geometry" />
        </mxCell>
        <mxCell id="Va36JWpo5vlnhU0wUGYR-31" value="" style="ellipse;whiteSpace=wrap;html=1;aspect=fixed;strokeWidth=25;fillColor=#f5f5f5;strokeColor=#666666;fontColor=#333333;" vertex="1" parent="1">
          <mxGeometry x="-6633.86" y="2775.6" width="236.22" height="236.22" as="geometry" />
        </mxCell>
        <mxCell id="Va36JWpo5vlnhU0wUGYR-32" value="" style="ellipse;whiteSpace=wrap;html=1;aspect=fixed;strokeWidth=25;fillColor=#f5f5f5;strokeColor=#666666;fontColor=#333333;" vertex="1" parent="1">
          <mxGeometry x="-7027.5599999999995" y="3090.5600000000004" width="236.22" height="236.22" as="geometry" />
        </mxCell>
        <mxCell id="Va36JWpo5vlnhU0wUGYR-33" value="" style="ellipse;whiteSpace=wrap;html=1;aspect=fixed;strokeWidth=25;fillColor=#f5f5f5;strokeColor=#666666;fontColor=#333333;" vertex="1" parent="1">
          <mxGeometry x="-6637.5599999999995" y="3090.5600000000004" width="239.92" height="239.92" as="geometry" />
        </mxCell>
        <mxCell id="Va36JWpo5vlnhU0wUGYR-34" value="" style="ellipse;whiteSpace=wrap;html=1;aspect=fixed;strokeWidth=25;fillColor=#f5f5f5;strokeColor=#666666;fontColor=#333333;" vertex="1" parent="1">
          <mxGeometry x="-7027.54" y="3405.500000000001" width="236.22" height="236.22" as="geometry" />
        </mxCell>
        <mxCell id="Va36JWpo5vlnhU0wUGYR-35" value="" style="ellipse;whiteSpace=wrap;html=1;aspect=fixed;strokeWidth=25;fillColor=#f5f5f5;strokeColor=#666666;fontColor=#333333;" vertex="1" parent="1">
          <mxGeometry x="-6633.839999999999" y="3405.500000000001" width="236.22" height="236.22" as="geometry" />
        </mxCell>
        <mxCell id="Va36JWpo5vlnhU0wUGYR-36" value="" style="ellipse;whiteSpace=wrap;html=1;aspect=fixed;strokeWidth=25;fillColor=#f5f5f5;strokeColor=#666666;fontColor=#333333;" vertex="1" parent="1">
          <mxGeometry x="-7027.54" y="3720.460000000001" width="236.22" height="236.22" as="geometry" />
        </mxCell>
        <mxCell id="Va36JWpo5vlnhU0wUGYR-37" value="" style="ellipse;whiteSpace=wrap;html=1;aspect=fixed;strokeWidth=25;fillColor=#f5f5f5;strokeColor=#666666;fontColor=#333333;" vertex="1" parent="1">
          <mxGeometry x="-6637.54" y="3720.460000000001" width="239.92" height="239.92" as="geometry" />
        </mxCell>
        <mxCell id="Va36JWpo5vlnhU0wUGYR-38" value="" style="ellipse;whiteSpace=wrap;html=1;aspect=fixed;strokeWidth=25;fillColor=#f5f5f5;strokeColor=#666666;fontColor=#333333;" vertex="1" parent="1">
          <mxGeometry x="-7027.535" y="4035.425" width="236.22" height="236.22" as="geometry" />
        </mxCell>
        <mxCell id="Va36JWpo5vlnhU0wUGYR-39" value="" style="ellipse;whiteSpace=wrap;html=1;aspect=fixed;strokeWidth=25;fillColor=#f5f5f5;strokeColor=#666666;fontColor=#333333;" vertex="1" parent="1">
          <mxGeometry x="-6633.834999999999" y="4035.425" width="236.22" height="236.22" as="geometry" />
        </mxCell>
        <mxCell id="Va36JWpo5vlnhU0wUGYR-40" value="" style="ellipse;whiteSpace=wrap;html=1;aspect=fixed;strokeWidth=25;fillColor=#f5f5f5;strokeColor=#666666;fontColor=#333333;" vertex="1" parent="1">
          <mxGeometry x="-7027.535" y="4350.385" width="236.22" height="236.22" as="geometry" />
        </mxCell>
        <mxCell id="Va36JWpo5vlnhU0wUGYR-41" value="" style="ellipse;whiteSpace=wrap;html=1;aspect=fixed;strokeWidth=25;fillColor=#f5f5f5;strokeColor=#666666;fontColor=#333333;" vertex="1" parent="1">
          <mxGeometry x="-6637.535" y="4350.385" width="239.92" height="239.92" as="geometry" />
        </mxCell>
        <mxCell id="Va36JWpo5vlnhU0wUGYR-42" value="3" style="text;html=1;strokeColor=none;fillColor=none;align=center;verticalAlign=middle;whiteSpace=wrap;rounded=0;strokeWidth=25;fontFamily=Economica;fontSource=https%3A%2F%2Ffonts.googleapis.com%2Fcss%3Ffamily%3DEconomica;fontSize=200;" vertex="1" parent="1">
          <mxGeometry x="-7027.585" y="-1317.045" width="236.22" height="236.22" as="geometry" />
        </mxCell>
        <mxCell id="Va36JWpo5vlnhU0wUGYR-43" value="4" style="text;html=1;strokeColor=none;fillColor=none;align=center;verticalAlign=middle;whiteSpace=wrap;rounded=0;strokeWidth=25;fontFamily=Economica;fontSource=https%3A%2F%2Ffonts.googleapis.com%2Fcss%3Ffamily%3DEconomica;fontSize=200;" vertex="1" parent="1">
          <mxGeometry x="-6633.88" y="-1317.0500000000002" width="236.22" height="236.22" as="geometry" />
        </mxCell>
        <mxCell id="Va36JWpo5vlnhU0wUGYR-44" value="2" style="text;html=1;strokeColor=none;fillColor=none;align=center;verticalAlign=middle;whiteSpace=wrap;rounded=0;strokeWidth=25;fontFamily=Economica;fontSource=https%3A%2F%2Ffonts.googleapis.com%2Fcss%3Ffamily%3DEconomica;fontSize=200;" vertex="1" parent="1">
          <mxGeometry x="-6633.884999999999" y="-1633.855" width="236.22" height="236.22" as="geometry" />
        </mxCell>
        <mxCell id="Va36JWpo5vlnhU0wUGYR-45" value="1" style="text;html=1;strokeColor=none;fillColor=none;align=center;verticalAlign=middle;whiteSpace=wrap;rounded=0;strokeWidth=25;fontFamily=Economica;fontSource=https%3A%2F%2Ffonts.googleapis.com%2Fcss%3Ffamily%3DEconomica;fontSize=200;" vertex="1" parent="1">
          <mxGeometry x="-7027.589999999999" y="-1633.85" width="236.22" height="236.22" as="geometry" />
        </mxCell>
        <mxCell id="Va36JWpo5vlnhU0wUGYR-46" value="7" style="text;html=1;strokeColor=none;fillColor=none;align=center;verticalAlign=middle;whiteSpace=wrap;rounded=0;strokeWidth=25;fontFamily=Economica;fontSource=https%3A%2F%2Ffonts.googleapis.com%2Fcss%3Ffamily%3DEconomica;fontSize=200;" vertex="1" parent="1">
          <mxGeometry x="-7027.58" y="-688.97" width="236.22" height="236.22" as="geometry" />
        </mxCell>
        <mxCell id="Va36JWpo5vlnhU0wUGYR-47" value="8" style="text;html=1;strokeColor=none;fillColor=none;align=center;verticalAlign=middle;whiteSpace=wrap;rounded=0;strokeWidth=25;fontFamily=Economica;fontSource=https%3A%2F%2Ffonts.googleapis.com%2Fcss%3Ffamily%3DEconomica;fontSize=200;" vertex="1" parent="1">
          <mxGeometry x="-6633.875" y="-688.9750000000001" width="236.22" height="236.22" as="geometry" />
        </mxCell>
        <mxCell id="Va36JWpo5vlnhU0wUGYR-48" value="6" style="text;html=1;strokeColor=none;fillColor=none;align=center;verticalAlign=middle;whiteSpace=wrap;rounded=0;strokeWidth=25;fontFamily=Economica;fontSource=https%3A%2F%2Ffonts.googleapis.com%2Fcss%3Ffamily%3DEconomica;fontSize=200;" vertex="1" parent="1">
          <mxGeometry x="-6633.88" y="-1005.7800000000002" width="236.22" height="236.22" as="geometry" />
        </mxCell>
        <mxCell id="Va36JWpo5vlnhU0wUGYR-49" value="5" style="text;html=1;strokeColor=none;fillColor=none;align=center;verticalAlign=middle;whiteSpace=wrap;rounded=0;strokeWidth=25;fontFamily=Economica;fontSource=https%3A%2F%2Ffonts.googleapis.com%2Fcss%3Ffamily%3DEconomica;fontSize=200;" vertex="1" parent="1">
          <mxGeometry x="-7027.585" y="-1005.7750000000001" width="236.22" height="236.22" as="geometry" />
        </mxCell>
        <mxCell id="Va36JWpo5vlnhU0wUGYR-50" value="11" style="text;html=1;strokeColor=none;fillColor=none;align=center;verticalAlign=middle;whiteSpace=wrap;rounded=0;strokeWidth=25;fontFamily=Economica;fontSource=https%3A%2F%2Ffonts.googleapis.com%2Fcss%3Ffamily%3DEconomica;fontSize=200;" vertex="1" parent="1">
          <mxGeometry x="-7027.58" y="-57.19999999999993" width="236.22" height="236.22" as="geometry" />
        </mxCell>
        <mxCell id="Va36JWpo5vlnhU0wUGYR-51" value="12" style="text;html=1;strokeColor=none;fillColor=none;align=center;verticalAlign=middle;whiteSpace=wrap;rounded=0;strokeWidth=25;fontFamily=Economica;fontSource=https%3A%2F%2Ffonts.googleapis.com%2Fcss%3Ffamily%3DEconomica;fontSize=200;" vertex="1" parent="1">
          <mxGeometry x="-6633.875" y="-57.20500000000004" width="236.22" height="236.22" as="geometry" />
        </mxCell>
        <mxCell id="Va36JWpo5vlnhU0wUGYR-52" value="10" style="text;html=1;strokeColor=none;fillColor=none;align=center;verticalAlign=middle;whiteSpace=wrap;rounded=0;strokeWidth=25;fontFamily=Economica;fontSource=https%3A%2F%2Ffonts.googleapis.com%2Fcss%3Ffamily%3DEconomica;fontSize=200;" vertex="1" parent="1">
          <mxGeometry x="-6633.88" y="-374.0100000000001" width="236.22" height="236.22" as="geometry" />
        </mxCell>
        <mxCell id="Va36JWpo5vlnhU0wUGYR-53" value="9" style="text;html=1;strokeColor=none;fillColor=none;align=center;verticalAlign=middle;whiteSpace=wrap;rounded=0;strokeWidth=25;fontFamily=Economica;fontSource=https%3A%2F%2Ffonts.googleapis.com%2Fcss%3Ffamily%3DEconomica;fontSize=200;" vertex="1" parent="1">
          <mxGeometry x="-7027.585" y="-374.005" width="236.22" height="236.22" as="geometry" />
        </mxCell>
        <mxCell id="Va36JWpo5vlnhU0wUGYR-54" value="15" style="text;html=1;strokeColor=none;fillColor=none;align=center;verticalAlign=middle;whiteSpace=wrap;rounded=0;strokeWidth=25;fontFamily=Economica;fontSource=https%3A%2F%2Ffonts.googleapis.com%2Fcss%3Ffamily%3DEconomica;fontSize=200;" vertex="1" parent="1">
          <mxGeometry x="-7027.575" y="570.8749999999999" width="236.22" height="236.22" as="geometry" />
        </mxCell>
        <mxCell id="Va36JWpo5vlnhU0wUGYR-55" value="16" style="text;html=1;strokeColor=none;fillColor=none;align=center;verticalAlign=middle;whiteSpace=wrap;rounded=0;strokeWidth=25;fontFamily=Economica;fontSource=https%3A%2F%2Ffonts.googleapis.com%2Fcss%3Ffamily%3DEconomica;fontSize=200;" vertex="1" parent="1">
          <mxGeometry x="-6633.87" y="570.8699999999998" width="236.22" height="236.22" as="geometry" />
        </mxCell>
        <mxCell id="Va36JWpo5vlnhU0wUGYR-56" value="14" style="text;html=1;strokeColor=none;fillColor=none;align=center;verticalAlign=middle;whiteSpace=wrap;rounded=0;strokeWidth=25;fontFamily=Economica;fontSource=https%3A%2F%2Ffonts.googleapis.com%2Fcss%3Ffamily%3DEconomica;fontSize=200;" vertex="1" parent="1">
          <mxGeometry x="-6633.875" y="254.06499999999994" width="236.22" height="236.22" as="geometry" />
        </mxCell>
        <mxCell id="Va36JWpo5vlnhU0wUGYR-57" value="13" style="text;html=1;strokeColor=none;fillColor=none;align=center;verticalAlign=middle;whiteSpace=wrap;rounded=0;strokeWidth=25;fontFamily=Economica;fontSource=https%3A%2F%2Ffonts.googleapis.com%2Fcss%3Ffamily%3DEconomica;fontSize=200;" vertex="1" parent="1">
          <mxGeometry x="-7027.58" y="254.07000000000005" width="236.22" height="236.22" as="geometry" />
        </mxCell>
        <mxCell id="Va36JWpo5vlnhU0wUGYR-58" value="19" style="text;html=1;strokeColor=none;fillColor=none;align=center;verticalAlign=middle;whiteSpace=wrap;rounded=0;strokeWidth=25;fontFamily=Economica;fontSource=https%3A%2F%2Ffonts.googleapis.com%2Fcss%3Ffamily%3DEconomica;fontSize=200;" vertex="1" parent="1">
          <mxGeometry x="-7027.599999999999" y="1202.6399999999999" width="236.22" height="236.22" as="geometry" />
        </mxCell>
        <mxCell id="Va36JWpo5vlnhU0wUGYR-59" value="20" style="text;html=1;strokeColor=none;fillColor=none;align=center;verticalAlign=middle;whiteSpace=wrap;rounded=0;strokeWidth=25;fontFamily=Economica;fontSource=https%3A%2F%2Ffonts.googleapis.com%2Fcss%3Ffamily%3DEconomica;fontSize=200;" vertex="1" parent="1">
          <mxGeometry x="-6633.8949999999995" y="1202.6349999999998" width="236.22" height="236.22" as="geometry" />
        </mxCell>
        <mxCell id="Va36JWpo5vlnhU0wUGYR-60" value="18" style="text;html=1;strokeColor=none;fillColor=none;align=center;verticalAlign=middle;whiteSpace=wrap;rounded=0;strokeWidth=25;fontFamily=Economica;fontSource=https%3A%2F%2Ffonts.googleapis.com%2Fcss%3Ffamily%3DEconomica;fontSize=200;" vertex="1" parent="1">
          <mxGeometry x="-6633.9" y="885.8299999999998" width="236.22" height="236.22" as="geometry" />
        </mxCell>
        <mxCell id="Va36JWpo5vlnhU0wUGYR-61" value="17" style="text;html=1;strokeColor=none;fillColor=none;align=center;verticalAlign=middle;whiteSpace=wrap;rounded=0;strokeWidth=25;fontFamily=Economica;fontSource=https%3A%2F%2Ffonts.googleapis.com%2Fcss%3Ffamily%3DEconomica;fontSize=200;" vertex="1" parent="1">
          <mxGeometry x="-7027.605" y="885.8349999999999" width="236.22" height="236.22" as="geometry" />
        </mxCell>
        <mxCell id="Va36JWpo5vlnhU0wUGYR-62" value="23" style="text;html=1;strokeColor=none;fillColor=none;align=center;verticalAlign=middle;whiteSpace=wrap;rounded=0;strokeWidth=25;fontFamily=Economica;fontSource=https%3A%2F%2Ffonts.googleapis.com%2Fcss%3Ffamily%3DEconomica;fontSize=200;" vertex="1" parent="1">
          <mxGeometry x="-7027.594999999999" y="1830.7150000000001" width="236.22" height="236.22" as="geometry" />
        </mxCell>
        <mxCell id="Va36JWpo5vlnhU0wUGYR-63" value="24" style="text;html=1;strokeColor=none;fillColor=none;align=center;verticalAlign=middle;whiteSpace=wrap;rounded=0;strokeWidth=25;fontFamily=Economica;fontSource=https%3A%2F%2Ffonts.googleapis.com%2Fcss%3Ffamily%3DEconomica;fontSize=200;" vertex="1" parent="1">
          <mxGeometry x="-6633.89" y="1830.71" width="236.22" height="236.22" as="geometry" />
        </mxCell>
        <mxCell id="Va36JWpo5vlnhU0wUGYR-64" value="22" style="text;html=1;strokeColor=none;fillColor=none;align=center;verticalAlign=middle;whiteSpace=wrap;rounded=0;strokeWidth=25;fontFamily=Economica;fontSource=https%3A%2F%2Ffonts.googleapis.com%2Fcss%3Ffamily%3DEconomica;fontSize=200;" vertex="1" parent="1">
          <mxGeometry x="-6633.8949999999995" y="1513.9049999999997" width="236.22" height="236.22" as="geometry" />
        </mxCell>
        <mxCell id="Va36JWpo5vlnhU0wUGYR-65" value="21" style="text;html=1;strokeColor=none;fillColor=none;align=center;verticalAlign=middle;whiteSpace=wrap;rounded=0;strokeWidth=25;fontFamily=Economica;fontSource=https%3A%2F%2Ffonts.googleapis.com%2Fcss%3Ffamily%3DEconomica;fontSize=200;" vertex="1" parent="1">
          <mxGeometry x="-7027.599999999999" y="1513.9099999999999" width="236.22" height="236.22" as="geometry" />
        </mxCell>
        <mxCell id="Va36JWpo5vlnhU0wUGYR-66" value="27" style="text;html=1;strokeColor=none;fillColor=none;align=center;verticalAlign=middle;whiteSpace=wrap;rounded=0;strokeWidth=25;fontFamily=Economica;fontSource=https%3A%2F%2Ffonts.googleapis.com%2Fcss%3Ffamily%3DEconomica;fontSize=200;" vertex="1" parent="1">
          <mxGeometry x="-7027.594999999999" y="2462.485" width="236.22" height="236.22" as="geometry" />
        </mxCell>
        <mxCell id="Va36JWpo5vlnhU0wUGYR-67" value="28" style="text;html=1;strokeColor=none;fillColor=none;align=center;verticalAlign=middle;whiteSpace=wrap;rounded=0;strokeWidth=25;fontFamily=Economica;fontSource=https%3A%2F%2Ffonts.googleapis.com%2Fcss%3Ffamily%3DEconomica;fontSize=200;" vertex="1" parent="1">
          <mxGeometry x="-6633.89" y="2462.48" width="236.22" height="236.22" as="geometry" />
        </mxCell>
        <mxCell id="Va36JWpo5vlnhU0wUGYR-68" value="26" style="text;html=1;strokeColor=none;fillColor=none;align=center;verticalAlign=middle;whiteSpace=wrap;rounded=0;strokeWidth=25;fontFamily=Economica;fontSource=https%3A%2F%2Ffonts.googleapis.com%2Fcss%3Ffamily%3DEconomica;fontSize=200;" vertex="1" parent="1">
          <mxGeometry x="-6633.8949999999995" y="2145.6749999999997" width="236.22" height="236.22" as="geometry" />
        </mxCell>
        <mxCell id="Va36JWpo5vlnhU0wUGYR-69" value="25" style="text;html=1;strokeColor=none;fillColor=none;align=center;verticalAlign=middle;whiteSpace=wrap;rounded=0;strokeWidth=25;fontFamily=Economica;fontSource=https%3A%2F%2Ffonts.googleapis.com%2Fcss%3Ffamily%3DEconomica;fontSize=200;" vertex="1" parent="1">
          <mxGeometry x="-7027.599999999999" y="2145.68" width="236.22" height="236.22" as="geometry" />
        </mxCell>
        <mxCell id="Va36JWpo5vlnhU0wUGYR-70" value="31" style="text;html=1;strokeColor=none;fillColor=none;align=center;verticalAlign=middle;whiteSpace=wrap;rounded=0;strokeWidth=25;fontFamily=Economica;fontSource=https%3A%2F%2Ffonts.googleapis.com%2Fcss%3Ffamily%3DEconomica;fontSize=200;" vertex="1" parent="1">
          <mxGeometry x="-7027.59" y="3090.5600000000004" width="236.22" height="236.22" as="geometry" />
        </mxCell>
        <mxCell id="Va36JWpo5vlnhU0wUGYR-71" value="32" style="text;html=1;strokeColor=none;fillColor=none;align=center;verticalAlign=middle;whiteSpace=wrap;rounded=0;strokeWidth=25;fontFamily=Economica;fontSource=https%3A%2F%2Ffonts.googleapis.com%2Fcss%3Ffamily%3DEconomica;fontSize=200;" vertex="1" parent="1">
          <mxGeometry x="-6633.885" y="3090.5550000000003" width="236.22" height="236.22" as="geometry" />
        </mxCell>
        <mxCell id="Va36JWpo5vlnhU0wUGYR-72" value="30" style="text;html=1;strokeColor=none;fillColor=none;align=center;verticalAlign=middle;whiteSpace=wrap;rounded=0;strokeWidth=25;fontFamily=Economica;fontSource=https%3A%2F%2Ffonts.googleapis.com%2Fcss%3Ffamily%3DEconomica;fontSize=200;" vertex="1" parent="1">
          <mxGeometry x="-6633.89" y="2773.75" width="236.22" height="236.22" as="geometry" />
        </mxCell>
        <mxCell id="Va36JWpo5vlnhU0wUGYR-73" value="29" style="text;html=1;strokeColor=none;fillColor=none;align=center;verticalAlign=middle;whiteSpace=wrap;rounded=0;strokeWidth=25;fontFamily=Economica;fontSource=https%3A%2F%2Ffonts.googleapis.com%2Fcss%3Ffamily%3DEconomica;fontSize=200;" vertex="1" parent="1">
          <mxGeometry x="-7027.594999999999" y="2773.755" width="236.22" height="236.22" as="geometry" />
        </mxCell>
        <mxCell id="Va36JWpo5vlnhU0wUGYR-74" value="35" style="text;html=1;strokeColor=none;fillColor=none;align=center;verticalAlign=middle;whiteSpace=wrap;rounded=0;strokeWidth=25;fontFamily=Economica;fontSource=https%3A%2F%2Ffonts.googleapis.com%2Fcss%3Ffamily%3DEconomica;fontSize=200;" vertex="1" parent="1">
          <mxGeometry x="-7027.61" y="3722.3100000000004" width="236.22" height="236.22" as="geometry" />
        </mxCell>
        <mxCell id="Va36JWpo5vlnhU0wUGYR-75" value="36" style="text;html=1;strokeColor=none;fillColor=none;align=center;verticalAlign=middle;whiteSpace=wrap;rounded=0;strokeWidth=25;fontFamily=Economica;fontSource=https%3A%2F%2Ffonts.googleapis.com%2Fcss%3Ffamily%3DEconomica;fontSize=200;" vertex="1" parent="1">
          <mxGeometry x="-6633.905" y="3722.3050000000003" width="236.22" height="236.22" as="geometry" />
        </mxCell>
        <mxCell id="Va36JWpo5vlnhU0wUGYR-76" value="34" style="text;html=1;strokeColor=none;fillColor=none;align=center;verticalAlign=middle;whiteSpace=wrap;rounded=0;strokeWidth=25;fontFamily=Economica;fontSource=https%3A%2F%2Ffonts.googleapis.com%2Fcss%3Ffamily%3DEconomica;fontSize=200;" vertex="1" parent="1">
          <mxGeometry x="-6633.91" y="3405.5" width="236.22" height="236.22" as="geometry" />
        </mxCell>
        <mxCell id="Va36JWpo5vlnhU0wUGYR-77" value="33" style="text;html=1;strokeColor=none;fillColor=none;align=center;verticalAlign=middle;whiteSpace=wrap;rounded=0;strokeWidth=25;fontFamily=Economica;fontSource=https%3A%2F%2Ffonts.googleapis.com%2Fcss%3Ffamily%3DEconomica;fontSize=200;" vertex="1" parent="1">
          <mxGeometry x="-7027.615" y="3405.505" width="236.22" height="236.22" as="geometry" />
        </mxCell>
        <mxCell id="Va36JWpo5vlnhU0wUGYR-78" value="39" style="text;html=1;strokeColor=none;fillColor=none;align=center;verticalAlign=middle;whiteSpace=wrap;rounded=0;strokeWidth=25;fontFamily=Economica;fontSource=https%3A%2F%2Ffonts.googleapis.com%2Fcss%3Ffamily%3DEconomica;fontSize=200;" vertex="1" parent="1">
          <mxGeometry x="-7027.605" y="4350.385000000001" width="236.22" height="236.22" as="geometry" />
        </mxCell>
        <mxCell id="Va36JWpo5vlnhU0wUGYR-79" value="40" style="text;html=1;strokeColor=none;fillColor=none;align=center;verticalAlign=middle;whiteSpace=wrap;rounded=0;strokeWidth=25;fontFamily=Economica;fontSource=https%3A%2F%2Ffonts.googleapis.com%2Fcss%3Ffamily%3DEconomica;fontSize=200;" vertex="1" parent="1">
          <mxGeometry x="-6633.900000000001" y="4350.380000000001" width="236.22" height="236.22" as="geometry" />
        </mxCell>
        <mxCell id="Va36JWpo5vlnhU0wUGYR-80" value="38" style="text;html=1;strokeColor=none;fillColor=none;align=center;verticalAlign=middle;whiteSpace=wrap;rounded=0;strokeWidth=25;fontFamily=Economica;fontSource=https%3A%2F%2Ffonts.googleapis.com%2Fcss%3Ffamily%3DEconomica;fontSize=200;" vertex="1" parent="1">
          <mxGeometry x="-6633.905" y="4033.5750000000007" width="236.22" height="236.22" as="geometry" />
        </mxCell>
        <mxCell id="Va36JWpo5vlnhU0wUGYR-81" value="37" style="text;html=1;strokeColor=none;fillColor=none;align=center;verticalAlign=middle;whiteSpace=wrap;rounded=0;strokeWidth=25;fontFamily=Economica;fontSource=https%3A%2F%2Ffonts.googleapis.com%2Fcss%3Ffamily%3DEconomica;fontSize=200;" vertex="1" parent="1">
          <mxGeometry x="-7027.61" y="4033.580000000001" width="236.22" height="236.22" as="geometry" />
        </mxCell>
        <mxCell id="Va36JWpo5vlnhU0wUGYR-82" value="3" style="text;html=1;strokeColor=none;fillColor=none;align=center;verticalAlign=middle;whiteSpace=wrap;rounded=0;strokeWidth=25;fontFamily=Economica;fontSource=https%3A%2F%2Ffonts.googleapis.com%2Fcss%3Ffamily%3DEconomica;fontSize=200;" vertex="1" parent="1">
          <mxGeometry x="-5866.095" y="-1395.7849999999999" width="236.22" height="236.22" as="geometry" />
        </mxCell>
        <mxCell id="Va36JWpo5vlnhU0wUGYR-83" value="4" style="text;html=1;strokeColor=none;fillColor=none;align=center;verticalAlign=middle;whiteSpace=wrap;rounded=0;strokeWidth=25;fontFamily=Economica;fontSource=https%3A%2F%2Ffonts.googleapis.com%2Fcss%3Ffamily%3DEconomica;fontSize=200;" vertex="1" parent="1">
          <mxGeometry x="-5472.39" y="-1395.79" width="236.22" height="236.22" as="geometry" />
        </mxCell>
        <mxCell id="Va36JWpo5vlnhU0wUGYR-84" value="2" style="text;html=1;strokeColor=none;fillColor=none;align=center;verticalAlign=middle;whiteSpace=wrap;rounded=0;strokeWidth=25;fontFamily=Economica;fontSource=https%3A%2F%2Ffonts.googleapis.com%2Fcss%3Ffamily%3DEconomica;fontSize=200;" vertex="1" parent="1">
          <mxGeometry x="-5472.395" y="-1712.595" width="236.22" height="236.22" as="geometry" />
        </mxCell>
        <mxCell id="Va36JWpo5vlnhU0wUGYR-85" value="1" style="text;html=1;strokeColor=none;fillColor=none;align=center;verticalAlign=middle;whiteSpace=wrap;rounded=0;strokeWidth=25;fontFamily=Economica;fontSource=https%3A%2F%2Ffonts.googleapis.com%2Fcss%3Ffamily%3DEconomica;fontSize=200;" vertex="1" parent="1">
          <mxGeometry x="-5866.1" y="-1712.59" width="236.22" height="236.22" as="geometry" />
        </mxCell>
        <mxCell id="Va36JWpo5vlnhU0wUGYR-86" value="7" style="text;html=1;strokeColor=none;fillColor=none;align=center;verticalAlign=middle;whiteSpace=wrap;rounded=0;strokeWidth=25;fontFamily=Economica;fontSource=https%3A%2F%2Ffonts.googleapis.com%2Fcss%3Ffamily%3DEconomica;fontSize=200;" vertex="1" parent="1">
          <mxGeometry x="-5866.09" y="-767.7099999999999" width="236.22" height="236.22" as="geometry" />
        </mxCell>
        <mxCell id="Va36JWpo5vlnhU0wUGYR-87" value="8" style="text;html=1;strokeColor=none;fillColor=none;align=center;verticalAlign=middle;whiteSpace=wrap;rounded=0;strokeWidth=25;fontFamily=Economica;fontSource=https%3A%2F%2Ffonts.googleapis.com%2Fcss%3Ffamily%3DEconomica;fontSize=200;" vertex="1" parent="1">
          <mxGeometry x="-5472.385" y="-767.715" width="236.22" height="236.22" as="geometry" />
        </mxCell>
        <mxCell id="Va36JWpo5vlnhU0wUGYR-88" value="6" style="text;html=1;strokeColor=none;fillColor=none;align=center;verticalAlign=middle;whiteSpace=wrap;rounded=0;strokeWidth=25;fontFamily=Economica;fontSource=https%3A%2F%2Ffonts.googleapis.com%2Fcss%3Ffamily%3DEconomica;fontSize=200;" vertex="1" parent="1">
          <mxGeometry x="-5472.39" y="-1084.52" width="236.22" height="236.22" as="geometry" />
        </mxCell>
        <mxCell id="Va36JWpo5vlnhU0wUGYR-89" value="5" style="text;html=1;strokeColor=none;fillColor=none;align=center;verticalAlign=middle;whiteSpace=wrap;rounded=0;strokeWidth=25;fontFamily=Economica;fontSource=https%3A%2F%2Ffonts.googleapis.com%2Fcss%3Ffamily%3DEconomica;fontSize=200;" vertex="1" parent="1">
          <mxGeometry x="-5866.095" y="-1084.5149999999999" width="236.22" height="236.22" as="geometry" />
        </mxCell>
        <mxCell id="Va36JWpo5vlnhU0wUGYR-90" value="11" style="text;html=1;strokeColor=none;fillColor=none;align=center;verticalAlign=middle;whiteSpace=wrap;rounded=0;strokeWidth=25;fontFamily=Economica;fontSource=https%3A%2F%2Ffonts.googleapis.com%2Fcss%3Ffamily%3DEconomica;fontSize=200;" vertex="1" parent="1">
          <mxGeometry x="-5866.09" y="-135.93999999999983" width="236.22" height="236.22" as="geometry" />
        </mxCell>
        <mxCell id="Va36JWpo5vlnhU0wUGYR-91" value="12" style="text;html=1;strokeColor=none;fillColor=none;align=center;verticalAlign=middle;whiteSpace=wrap;rounded=0;strokeWidth=25;fontFamily=Economica;fontSource=https%3A%2F%2Ffonts.googleapis.com%2Fcss%3Ffamily%3DEconomica;fontSize=200;" vertex="1" parent="1">
          <mxGeometry x="-5472.385" y="-135.94499999999994" width="236.22" height="236.22" as="geometry" />
        </mxCell>
        <mxCell id="Va36JWpo5vlnhU0wUGYR-92" value="10" style="text;html=1;strokeColor=none;fillColor=none;align=center;verticalAlign=middle;whiteSpace=wrap;rounded=0;strokeWidth=25;fontFamily=Economica;fontSource=https%3A%2F%2Ffonts.googleapis.com%2Fcss%3Ffamily%3DEconomica;fontSize=200;" vertex="1" parent="1">
          <mxGeometry x="-5472.39" y="-452.75" width="236.22" height="236.22" as="geometry" />
        </mxCell>
        <mxCell id="Va36JWpo5vlnhU0wUGYR-93" value="9" style="text;html=1;strokeColor=none;fillColor=none;align=center;verticalAlign=middle;whiteSpace=wrap;rounded=0;strokeWidth=25;fontFamily=Economica;fontSource=https%3A%2F%2Ffonts.googleapis.com%2Fcss%3Ffamily%3DEconomica;fontSize=200;" vertex="1" parent="1">
          <mxGeometry x="-5866.095" y="-452.7449999999999" width="236.22" height="236.22" as="geometry" />
        </mxCell>
        <mxCell id="Va36JWpo5vlnhU0wUGYR-94" value="15" style="text;html=1;strokeColor=none;fillColor=none;align=center;verticalAlign=middle;whiteSpace=wrap;rounded=0;strokeWidth=25;fontFamily=Economica;fontSource=https%3A%2F%2Ffonts.googleapis.com%2Fcss%3Ffamily%3DEconomica;fontSize=200;" vertex="1" parent="1">
          <mxGeometry x="-5866.085" y="492.135" width="236.22" height="236.22" as="geometry" />
        </mxCell>
        <mxCell id="Va36JWpo5vlnhU0wUGYR-95" value="16" style="text;html=1;strokeColor=none;fillColor=none;align=center;verticalAlign=middle;whiteSpace=wrap;rounded=0;strokeWidth=25;fontFamily=Economica;fontSource=https%3A%2F%2Ffonts.googleapis.com%2Fcss%3Ffamily%3DEconomica;fontSize=200;" vertex="1" parent="1">
          <mxGeometry x="-5472.380000000001" y="492.1299999999999" width="236.22" height="236.22" as="geometry" />
        </mxCell>
        <mxCell id="Va36JWpo5vlnhU0wUGYR-96" value="14" style="text;html=1;strokeColor=none;fillColor=none;align=center;verticalAlign=middle;whiteSpace=wrap;rounded=0;strokeWidth=25;fontFamily=Economica;fontSource=https%3A%2F%2Ffonts.googleapis.com%2Fcss%3Ffamily%3DEconomica;fontSize=200;" vertex="1" parent="1">
          <mxGeometry x="-5472.385" y="175.32500000000005" width="236.22" height="236.22" as="geometry" />
        </mxCell>
        <mxCell id="Va36JWpo5vlnhU0wUGYR-97" value="13" style="text;html=1;strokeColor=none;fillColor=none;align=center;verticalAlign=middle;whiteSpace=wrap;rounded=0;strokeWidth=25;fontFamily=Economica;fontSource=https%3A%2F%2Ffonts.googleapis.com%2Fcss%3Ffamily%3DEconomica;fontSize=200;" vertex="1" parent="1">
          <mxGeometry x="-5866.09" y="175.33000000000015" width="236.22" height="236.22" as="geometry" />
        </mxCell>
        <mxCell id="Va36JWpo5vlnhU0wUGYR-98" value="19" style="text;html=1;strokeColor=none;fillColor=none;align=center;verticalAlign=middle;whiteSpace=wrap;rounded=0;strokeWidth=25;fontFamily=Economica;fontSource=https%3A%2F%2Ffonts.googleapis.com%2Fcss%3Ffamily%3DEconomica;fontSize=200;" vertex="1" parent="1">
          <mxGeometry x="-5866.110000000001" y="1123.8999999999999" width="236.22" height="236.22" as="geometry" />
        </mxCell>
        <mxCell id="Va36JWpo5vlnhU0wUGYR-99" value="20" style="text;html=1;strokeColor=none;fillColor=none;align=center;verticalAlign=middle;whiteSpace=wrap;rounded=0;strokeWidth=25;fontFamily=Economica;fontSource=https%3A%2F%2Ffonts.googleapis.com%2Fcss%3Ffamily%3DEconomica;fontSize=200;" vertex="1" parent="1">
          <mxGeometry x="-5472.405000000001" y="1123.8949999999998" width="236.22" height="236.22" as="geometry" />
        </mxCell>
        <mxCell id="Va36JWpo5vlnhU0wUGYR-100" value="18" style="text;html=1;strokeColor=none;fillColor=none;align=center;verticalAlign=middle;whiteSpace=wrap;rounded=0;strokeWidth=25;fontFamily=Economica;fontSource=https%3A%2F%2Ffonts.googleapis.com%2Fcss%3Ffamily%3DEconomica;fontSize=200;" vertex="1" parent="1">
          <mxGeometry x="-5472.410000000001" y="807.0899999999999" width="236.22" height="236.22" as="geometry" />
        </mxCell>
        <mxCell id="Va36JWpo5vlnhU0wUGYR-101" value="17" style="text;html=1;strokeColor=none;fillColor=none;align=center;verticalAlign=middle;whiteSpace=wrap;rounded=0;strokeWidth=25;fontFamily=Economica;fontSource=https%3A%2F%2Ffonts.googleapis.com%2Fcss%3Ffamily%3DEconomica;fontSize=200;" vertex="1" parent="1">
          <mxGeometry x="-5866.115000000001" y="807.095" width="236.22" height="236.22" as="geometry" />
        </mxCell>
        <mxCell id="Va36JWpo5vlnhU0wUGYR-102" value="23" style="text;html=1;strokeColor=none;fillColor=none;align=center;verticalAlign=middle;whiteSpace=wrap;rounded=0;strokeWidth=25;fontFamily=Economica;fontSource=https%3A%2F%2Ffonts.googleapis.com%2Fcss%3Ffamily%3DEconomica;fontSize=200;" vertex="1" parent="1">
          <mxGeometry x="-5866.1050000000005" y="1751.9750000000001" width="236.22" height="236.22" as="geometry" />
        </mxCell>
        <mxCell id="Va36JWpo5vlnhU0wUGYR-103" value="24" style="text;html=1;strokeColor=none;fillColor=none;align=center;verticalAlign=middle;whiteSpace=wrap;rounded=0;strokeWidth=25;fontFamily=Economica;fontSource=https%3A%2F%2Ffonts.googleapis.com%2Fcss%3Ffamily%3DEconomica;fontSize=200;" vertex="1" parent="1">
          <mxGeometry x="-5472.400000000001" y="1751.97" width="236.22" height="236.22" as="geometry" />
        </mxCell>
        <mxCell id="Va36JWpo5vlnhU0wUGYR-104" value="22" style="text;html=1;strokeColor=none;fillColor=none;align=center;verticalAlign=middle;whiteSpace=wrap;rounded=0;strokeWidth=25;fontFamily=Economica;fontSource=https%3A%2F%2Ffonts.googleapis.com%2Fcss%3Ffamily%3DEconomica;fontSize=200;" vertex="1" parent="1">
          <mxGeometry x="-5472.405000000001" y="1435.1649999999997" width="236.22" height="236.22" as="geometry" />
        </mxCell>
        <mxCell id="Va36JWpo5vlnhU0wUGYR-105" value="21" style="text;html=1;strokeColor=none;fillColor=none;align=center;verticalAlign=middle;whiteSpace=wrap;rounded=0;strokeWidth=25;fontFamily=Economica;fontSource=https%3A%2F%2Ffonts.googleapis.com%2Fcss%3Ffamily%3DEconomica;fontSize=200;" vertex="1" parent="1">
          <mxGeometry x="-5866.110000000001" y="1435.1699999999998" width="236.22" height="236.22" as="geometry" />
        </mxCell>
        <mxCell id="Va36JWpo5vlnhU0wUGYR-106" value="27" style="text;html=1;strokeColor=none;fillColor=none;align=center;verticalAlign=middle;whiteSpace=wrap;rounded=0;strokeWidth=25;fontFamily=Economica;fontSource=https%3A%2F%2Ffonts.googleapis.com%2Fcss%3Ffamily%3DEconomica;fontSize=200;" vertex="1" parent="1">
          <mxGeometry x="-5866.1050000000005" y="2383.745" width="236.22" height="236.22" as="geometry" />
        </mxCell>
        <mxCell id="Va36JWpo5vlnhU0wUGYR-107" value="28" style="text;html=1;strokeColor=none;fillColor=none;align=center;verticalAlign=middle;whiteSpace=wrap;rounded=0;strokeWidth=25;fontFamily=Economica;fontSource=https%3A%2F%2Ffonts.googleapis.com%2Fcss%3Ffamily%3DEconomica;fontSize=200;" vertex="1" parent="1">
          <mxGeometry x="-5472.400000000001" y="2383.74" width="236.22" height="236.22" as="geometry" />
        </mxCell>
        <mxCell id="Va36JWpo5vlnhU0wUGYR-108" value="26" style="text;html=1;strokeColor=none;fillColor=none;align=center;verticalAlign=middle;whiteSpace=wrap;rounded=0;strokeWidth=25;fontFamily=Economica;fontSource=https%3A%2F%2Ffonts.googleapis.com%2Fcss%3Ffamily%3DEconomica;fontSize=200;" vertex="1" parent="1">
          <mxGeometry x="-5472.405000000001" y="2066.9349999999995" width="236.22" height="236.22" as="geometry" />
        </mxCell>
        <mxCell id="Va36JWpo5vlnhU0wUGYR-109" value="25" style="text;html=1;strokeColor=none;fillColor=none;align=center;verticalAlign=middle;whiteSpace=wrap;rounded=0;strokeWidth=25;fontFamily=Economica;fontSource=https%3A%2F%2Ffonts.googleapis.com%2Fcss%3Ffamily%3DEconomica;fontSize=200;" vertex="1" parent="1">
          <mxGeometry x="-5866.110000000001" y="2066.9399999999996" width="236.22" height="236.22" as="geometry" />
        </mxCell>
        <mxCell id="Va36JWpo5vlnhU0wUGYR-110" value="31" style="text;html=1;strokeColor=none;fillColor=none;align=center;verticalAlign=middle;whiteSpace=wrap;rounded=0;strokeWidth=25;fontFamily=Economica;fontSource=https%3A%2F%2Ffonts.googleapis.com%2Fcss%3Ffamily%3DEconomica;fontSize=200;" vertex="1" parent="1">
          <mxGeometry x="-5866.1" y="3011.8200000000006" width="236.22" height="236.22" as="geometry" />
        </mxCell>
        <mxCell id="Va36JWpo5vlnhU0wUGYR-111" value="32" style="text;html=1;strokeColor=none;fillColor=none;align=center;verticalAlign=middle;whiteSpace=wrap;rounded=0;strokeWidth=25;fontFamily=Economica;fontSource=https%3A%2F%2Ffonts.googleapis.com%2Fcss%3Ffamily%3DEconomica;fontSize=200;" vertex="1" parent="1">
          <mxGeometry x="-5472.395" y="3011.8150000000005" width="236.22" height="236.22" as="geometry" />
        </mxCell>
        <mxCell id="Va36JWpo5vlnhU0wUGYR-112" value="30" style="text;html=1;strokeColor=none;fillColor=none;align=center;verticalAlign=middle;whiteSpace=wrap;rounded=0;strokeWidth=25;fontFamily=Economica;fontSource=https%3A%2F%2Ffonts.googleapis.com%2Fcss%3Ffamily%3DEconomica;fontSize=200;" vertex="1" parent="1">
          <mxGeometry x="-5472.400000000001" y="2695.01" width="236.22" height="236.22" as="geometry" />
        </mxCell>
        <mxCell id="Va36JWpo5vlnhU0wUGYR-113" value="29" style="text;html=1;strokeColor=none;fillColor=none;align=center;verticalAlign=middle;whiteSpace=wrap;rounded=0;strokeWidth=25;fontFamily=Economica;fontSource=https%3A%2F%2Ffonts.googleapis.com%2Fcss%3Ffamily%3DEconomica;fontSize=200;" vertex="1" parent="1">
          <mxGeometry x="-5866.1050000000005" y="2695.0150000000003" width="236.22" height="236.22" as="geometry" />
        </mxCell>
        <mxCell id="Va36JWpo5vlnhU0wUGYR-114" value="35" style="text;html=1;strokeColor=none;fillColor=none;align=center;verticalAlign=middle;whiteSpace=wrap;rounded=0;strokeWidth=25;fontFamily=Economica;fontSource=https%3A%2F%2Ffonts.googleapis.com%2Fcss%3Ffamily%3DEconomica;fontSize=200;" vertex="1" parent="1">
          <mxGeometry x="-5866.120000000001" y="3643.5700000000006" width="236.22" height="236.22" as="geometry" />
        </mxCell>
        <mxCell id="Va36JWpo5vlnhU0wUGYR-115" value="36" style="text;html=1;strokeColor=none;fillColor=none;align=center;verticalAlign=middle;whiteSpace=wrap;rounded=0;strokeWidth=25;fontFamily=Economica;fontSource=https%3A%2F%2Ffonts.googleapis.com%2Fcss%3Ffamily%3DEconomica;fontSize=200;" vertex="1" parent="1">
          <mxGeometry x="-5472.415000000001" y="3643.5650000000005" width="236.22" height="236.22" as="geometry" />
        </mxCell>
        <mxCell id="Va36JWpo5vlnhU0wUGYR-116" value="34" style="text;html=1;strokeColor=none;fillColor=none;align=center;verticalAlign=middle;whiteSpace=wrap;rounded=0;strokeWidth=25;fontFamily=Economica;fontSource=https%3A%2F%2Ffonts.googleapis.com%2Fcss%3Ffamily%3DEconomica;fontSize=200;" vertex="1" parent="1">
          <mxGeometry x="-5472.420000000001" y="3326.76" width="236.22" height="236.22" as="geometry" />
        </mxCell>
        <mxCell id="Va36JWpo5vlnhU0wUGYR-117" value="33" style="text;html=1;strokeColor=none;fillColor=none;align=center;verticalAlign=middle;whiteSpace=wrap;rounded=0;strokeWidth=25;fontFamily=Economica;fontSource=https%3A%2F%2Ffonts.googleapis.com%2Fcss%3Ffamily%3DEconomica;fontSize=200;" vertex="1" parent="1">
          <mxGeometry x="-5866.125000000001" y="3326.7650000000003" width="236.22" height="236.22" as="geometry" />
        </mxCell>
        <mxCell id="Va36JWpo5vlnhU0wUGYR-118" value="39" style="text;html=1;strokeColor=none;fillColor=none;align=center;verticalAlign=middle;whiteSpace=wrap;rounded=0;strokeWidth=25;fontFamily=Economica;fontSource=https%3A%2F%2Ffonts.googleapis.com%2Fcss%3Ffamily%3DEconomica;fontSize=200;" vertex="1" parent="1">
          <mxGeometry x="-5866.115000000001" y="4271.645000000001" width="236.22" height="236.22" as="geometry" />
        </mxCell>
        <mxCell id="Va36JWpo5vlnhU0wUGYR-119" value="40" style="text;html=1;strokeColor=none;fillColor=none;align=center;verticalAlign=middle;whiteSpace=wrap;rounded=0;strokeWidth=25;fontFamily=Economica;fontSource=https%3A%2F%2Ffonts.googleapis.com%2Fcss%3Ffamily%3DEconomica;fontSize=200;" vertex="1" parent="1">
          <mxGeometry x="-5472.410000000001" y="4271.640000000001" width="236.22" height="236.22" as="geometry" />
        </mxCell>
        <mxCell id="Va36JWpo5vlnhU0wUGYR-120" value="38" style="text;html=1;strokeColor=none;fillColor=none;align=center;verticalAlign=middle;whiteSpace=wrap;rounded=0;strokeWidth=25;fontFamily=Economica;fontSource=https%3A%2F%2Ffonts.googleapis.com%2Fcss%3Ffamily%3DEconomica;fontSize=200;" vertex="1" parent="1">
          <mxGeometry x="-5472.415000000001" y="3954.835000000001" width="236.22" height="236.22" as="geometry" />
        </mxCell>
        <mxCell id="Va36JWpo5vlnhU0wUGYR-121" value="37" style="text;html=1;strokeColor=none;fillColor=none;align=center;verticalAlign=middle;whiteSpace=wrap;rounded=0;strokeWidth=25;fontFamily=Economica;fontSource=https%3A%2F%2Ffonts.googleapis.com%2Fcss%3Ffamily%3DEconomica;fontSize=200;" vertex="1" parent="1">
          <mxGeometry x="-5866.120000000001" y="3954.840000000001" width="236.22" height="236.22" as="geometry" />
        </mxCell>
      </root>
    </mxGraphModel>
  </diagram>
</mxfile>
